<?xml version="1.0" encoding="utf-8"?>
<!-- Generator: Adobe Illustrator 25.0.0, SVG Export Plug-In . SVG Version: 6.00 Build 0)  -->
<svg version="1.1" id="Layer_1" xmlns="http://www.w3.org/2000/svg" xmlns:xlink="http://www.w3.org/1999/xlink" x="0px" y="0px"
	 viewBox="0 0 1077 309.87" style="enable-background:new 0 0 1077 309.87;" xml:space="preserve">
<style type="text/css">
	.st0{fill:#FFFFFF;}
	.st1{fill:url(#SVGID_1_);}
</style>
<g>
	<g>
		<path class="st0" d="M217.08,109.92c1.82-1.99,4.48-2.97,7.97-2.97h137.72c20.77,0,35.12,9.99,43.06,29.97
			c1.43,4.76,2.14,9.67,2.14,14.75v1.66c0,20.14-9.91,34.25-29.73,42.34c-2.22,0.8-6.22,1.47-12.01,2.02
			c-5.79,0.56-13.52,0.83-23.19,0.83c-6.5,0.95-9.75,3.02-9.75,6.19v0.47c0,4.13,4.6,9.44,13.79,15.94l51.38,43.06
			c1.27,1.42,1.9,3.17,1.9,5.23c0,2.7-2.94,4.05-8.8,4.05h-29.25c-7.14,0-14.67-3.72-22.6-11.18
			c-45.04-37.26-68.11-56.53-69.22-57.8c-4.6-4.12-6.9-9.99-6.9-17.6v-9.99c0-8.24,3.65-12.37,10.94-12.37h67.32
			c14.9,0,23.31-1.35,25.21-4.05c2.69-1.9,4.04-4.59,4.04-8.09c0-5.07-2.93-8.56-8.8-10.47c-1.9-0.95-8.09-1.42-18.55-1.42h-74.45
			c-11.26,0-17.6,2.14-19.03,6.42c-1.27,2.7-1.9,5.4-1.9,8.09c-0.16,27.12-0.24,49.63-0.24,67.56c0,17.92,0,31.63,0,41.14
			c0,2.54-0.95,4.8-2.85,6.78c-1.9,1.99-4.52,2.97-7.85,2.97h-12.37c-3.17,0-5.75-0.91-7.73-2.73c-1.99-1.82-2.97-4.48-2.97-7.97
			v-145.1C214.34,114.47,215.25,111.9,217.08,109.92z"/>
		<path class="st0" d="M526.41,106.94c7.77,0,13.32,4.44,16.65,13.32c22.84,45.99,40.11,80.91,51.85,104.78
			c11.73,23.87,17.99,36.83,18.79,38.89c0.32,0.95,0.48,1.75,0.48,2.38v1.19c-0.64,3.96-3.33,5.95-8.09,5.95h-17.6
			c-7.61,0-13.56-5.79-17.84-17.37c-13.32-26.95-23.79-48.05-31.4-63.26c-7.61-15.23-12.53-24.9-14.75-29.02
			c-2.7-3.33-4.92-5-6.66-5h-2.14c-4.28,0-9.6,7.61-15.94,22.84l-41.86,84.44c-3.49,4.92-7.85,7.37-13.08,7.37h-17.36
			c-3.81,0-6.42-1.43-7.85-4.29l-0.24-1.66v-1.19c0-2.38,3.09-9.43,9.28-21.17c18.23-37.26,32.74-66.72,43.53-88.37
			c10.78-21.64,17.92-35.88,21.41-42.7c3.01-4.76,7.53-7.13,13.56-7.13H526.41z"/>
		<path class="st0" d="M628.34,109.92c1.82-1.99,4.48-2.97,7.97-2.97h15.22c6.98,0,13.24,2.85,18.79,8.56
			c31.88,30.29,56.14,53.28,72.79,68.97c16.65,15.71,25.93,24.43,27.83,26.17c3.17,1.9,5.78,2.94,7.85,3.09
			c4.75,0,7.14-6.18,7.14-18.55v-77.55c0-3,0.87-5.54,2.62-7.61c1.74-2.06,4.36-3.09,7.85-3.09h12.13c3.17,0,5.74,0.91,7.73,2.73
			c1.98,1.83,2.97,4.48,2.97,7.97v145.1c0,3.02-0.91,5.55-2.73,7.61c-1.83,2.06-4.48,3.09-7.97,3.09h-14.51
			c-8.09,0-15.54-4.05-22.36-12.13l-97.76-92.29c-3.17-1.74-5.63-2.62-7.37-2.62c-4.76,0-7.13,6.11-7.13,18.31v78.02
			c0,3.02-0.91,5.55-2.73,7.61c-1.83,2.06-4.48,3.09-7.97,3.09h-12.37c-3.18,0-5.75-0.91-7.73-2.73c-1.99-1.82-2.97-4.48-2.97-7.97
			v-145.1C625.6,114.47,626.52,111.9,628.34,109.92z"/>
		<path class="st0" d="M833.37,109.92c1.82-1.99,4.48-2.97,7.97-2.97h173.16c3.01,0,5.51,0.91,7.49,2.73
			c1.98,1.83,2.97,4.48,2.97,7.97v34.73c0,19.5-8.66,33.38-25.96,41.62c-5.88,2.7-12.95,4.05-21.21,4.05h-73.61
			c-15.72,0-25.09,1.36-28.11,4.07c-7.78,4.95-11.67,12.52-11.67,22.73c0,6.38,1.75,10.48,5.24,12.32c3.5,1.84,8.73,2.75,15.72,2.75
			h128.64c3.02,0,5.52,0.91,7.5,2.71c1.99,1.81,2.98,4.45,2.98,7.91v12.28c0,3-0.87,5.51-2.62,7.56c-1.75,2.05-4.36,3.07-7.85,3.07
			H841.34c-3.17,0-5.75-0.91-7.73-2.73c-1.98-1.82-2.97-4.48-2.97-7.97v-44.48c0-22.52,10.46-39.01,31.4-49.48
			c6.81-2.85,14.19-4.28,22.12-4.28h74.45c14.75,0,23.23-1.27,25.45-3.81c3.48-2.53,5.23-5.78,5.23-9.75v-0.48
			c0-4.44-1.9-7.22-5.71-8.32s-8.32-1.66-13.56-1.66H841.34c-3.01,0-5.55-0.91-7.61-2.73c-2.06-1.82-3.09-4.48-3.09-7.97v-12.13
			C830.64,114.47,831.55,111.9,833.37,109.92z"/>
		<path class="st0" d="M1038.17,109.92c1.82-1.99,4.48-2.97,7.97-2.97h12.13c3.01,0,5.51,0.91,7.49,2.73
			c1.98,1.83,2.97,4.48,2.97,7.97v145.1c0,3.02-0.87,5.55-2.62,7.61c-1.75,2.06-4.36,3.09-7.85,3.09h-12.13
			c-3.17,0-5.75-0.91-7.73-2.73c-1.99-1.82-2.97-4.48-2.97-7.97v-145.1C1035.44,114.47,1036.35,111.9,1038.17,109.92z"/>
	</g>
	<g>
		<radialGradient id="SVGID_1_" cx="72.1347" cy="39.4866" r="377.0141" gradientUnits="userSpaceOnUse">
			<stop  offset="0" style="stop-color:#29ABE2"/>
			<stop  offset="0.9926" style="stop-color:#2E3192"/>
		</radialGradient>
		<path class="st1" d="M63.63,16.69l-7.68,25.88l-1.45,4.89l-7.39,24.91h23.36l16.36-55.68H63.63z M43.99,31.93l4.48-15.24H25.11
			c-5.79,0-10.22,1.64-13.24,4.93c-3.03,3.3-4.55,7.57-4.55,12.83V54.6c0,5.79,1.72,10.21,5.14,13.23
			c3.42,3.04,7.63,4.55,12.64,4.55h7l6.61-22.52c-2.11-1.9-3.44-4.65-3.44-7.71C35.29,36.99,39.05,32.72,43.99,31.93z
			 M174.83,236.15l-16.39-16.7V48.72H99.06c-1.74,3.26-5.17,5.47-9.12,5.47c-0.39,0-0.77-0.02-1.15-0.06l-5.42,18.25h9.05
			c12.37,0,20.67,1.31,24.88,3.94c6.84,2.37,10.27,12.91,10.27,31.58v167.43c0,6.07,1.63,10.54,4.93,13.44
			c3.29,2.89,7.56,4.33,12.83,4.33h20.53c5.79,0,10.19-1.71,13.23-5.14c3.03-3.42,4.55-7.63,4.55-12.64v-39.17H174.83z M294.38,34.6
			h-19.31c-1.31,0-2.38-1.06-2.38-2.39V16.69H99.89l-5.31,17.92c2.46,1.23,4.35,3.41,5.21,6.05h66.76v175.76l8.81,8.81h8.29V107.89
			c0-6.04,0.26-11.17,0.77-15.4c0.53-4.2,1.45-7.36,2.77-9.47c2.38-7.11,12.9-10.65,31.59-10.65h58.89c0.31,0,0.62-0.02,0.93-0.03
			c5.19-0.16,9.21-1.79,12.05-4.85c0.1-0.08,0.17-0.17,0.25-0.26c2.85-3.21,4.35-7.11,4.52-11.7c0.03-0.31,0.03-0.62,0.03-0.93
			V34.36C295.13,34.51,294.76,34.6,294.38,34.6z M292.79,41.78h-21.44c-2.82,0-5.12-2.29-5.12-5.11v-17.6h5.38v15.72
			c0,0.89,0.72,1.62,1.62,1.62h19.56V41.78z M290.9,21.62c-3.02-3.29-7.44-4.93-13.24-4.93h-4.98v15.52c0,1.33,1.07,2.39,2.38,2.39
			h19.31c0.38,0,0.75-0.09,1.07-0.24C295.42,29.13,293.91,24.9,290.9,21.62z"/>
	</g>
</g>
</svg>
