<?xml version="1.0" encoding="utf-8"?>
<!-- Generator: Adobe Illustrator 25.0.0, SVG Export Plug-In . SVG Version: 6.00 Build 0)  -->
<svg version="1.1" id="Layer_1" xmlns="http://www.w3.org/2000/svg" xmlns:xlink="http://www.w3.org/1999/xlink" x="0px" y="0px"
	 viewBox="0 0 750 500" style="enable-background:new 0 0 750 500;" xml:space="preserve">
<style type="text/css">
	.st0{fill:#EBEBEB;}
	.st1{fill:#A6A6A6;}
	.st2{fill:#29ABE2;}
	.st3{fill:#263238;}
	.st4{fill:#37474F;}
	.st5{fill:#DBDBDB;}
	.st6{fill:#FFFFFF;}
	.st7{fill:#455A64;}
	.st8{fill:#C7C7C7;}
	.st9{opacity:0.6;fill:#FFFFFF;enable-background:new    ;}
	.st10{opacity:0.2;enable-background:new    ;}
	.st11{opacity:0.1;enable-background:new    ;}
	.st12{opacity:0.3;}
	.st13{opacity:0.6;}
	.st14{fill:#EB9481;}
	.st15{opacity:0.1;}
	.st16{fill:#FF9BBC;}
</style>
<g id="freepik--background-complete--inject-2">
	<path class="st0" d="M225.8,163.3H99.1V76.6h126.6V163.3z M100.1,162.3h124.6V77.6H100.1V162.3z"/>
	<path class="st1" d="M109.1,82.2c0,1.4-1.1,2.5-2.5,2.5s-2.5-1.1-2.5-2.5c0-1.4,1.1-2.5,2.5-2.5h0
		C107.9,79.7,109.1,80.8,109.1,82.2z"/>
	<path class="st0" d="M119.3,82.2c0,1.4-1.1,2.5-2.5,2.5s-2.5-1.1-2.5-2.5c0-1.4,1.1-2.5,2.5-2.5h0
		C118.2,79.7,119.3,80.8,119.3,82.2z"/>
	<path class="st2" d="M129.6,82.2c0,1.4-1.1,2.5-2.5,2.5c-1.4,0-2.5-1.1-2.5-2.5c0-1.4,1.1-2.5,2.5-2.5h0
		C128.5,79.7,129.6,80.8,129.6,82.2z"/>
	<rect x="99.6" y="86.7" class="st0" width="125.6" height="1"/>
	<path class="st0" d="M657.1,197.6l5.9-9.5l-2.9-1.8c-0.9-0.5-1.3-1.5-1.2-2.5c0-0.6,0.1-1.1,0-1.7c0-1,0.5-1.9,1.4-2.4l3-1.6
		l-5.3-9.8l-3,1.6c-0.9,0.5-2,0.4-2.8-0.2c-0.5-0.3-0.9-0.6-1.4-0.9c-0.9-0.5-1.4-1.4-1.4-2.4l0.1-3.4l-11.2-0.4l-0.1,3.4
		c0,1-0.6,1.9-1.5,2.3l-0.7,0.4l-0.7,0.4c-0.9,0.5-1.9,0.5-2.8,0l-2.9-1.8l-5.9,9.5l2.9,1.8c0.9,0.5,1.3,1.5,1.2,2.5
		c0,0.6,0,1.1,0,1.7c0,1-0.5,1.9-1.4,2.4l-3,1.6l5.3,9.8l3-1.6c0.9-0.5,2-0.4,2.8,0.2c0.5,0.3,0.9,0.6,1.4,0.9
		c0.9,0.5,1.4,1.4,1.4,2.4l-0.1,3.4l11.2,0.4l0.1-3.4c0-1,0.6-1.9,1.5-2.3l0.7-0.4l0.7-0.4c0.9-0.5,1.9-0.5,2.8,0L657.1,197.6z
		 M647.6,190.6c-4.5,2.4-10,0.7-12.4-3.7c-2.4-4.5-0.7-10,3.7-12.4c4.5-2.4,10-0.7,12.4,3.7C653.7,182.7,652,188.2,647.6,190.6
		L647.6,190.6z"/>
	<path class="st0" d="M283.8,97.9l-3.9-6.8l-2.1,1.2c-0.6,0.4-1.4,0.3-2-0.1c-0.3-0.2-0.7-0.4-1-0.6c-0.6-0.3-1-1-1-1.7v-2.4H266V90
		c0,0.7-0.4,1.3-1,1.7c-0.3,0.2-0.7,0.4-1,0.6c-0.6,0.4-1.3,0.4-2,0.1l-2.1-1.2l-4,6.8l2.1,1.2c0.6,0.4,1,1,0.9,1.7
		c0,0.2,0,0.4,0,0.6s0,0.4,0,0.6c0,0.7-0.3,1.4-0.9,1.7l-2.1,1.2l3.9,6.8l2.1-1.2c0.6-0.4,1.4-0.3,2,0.1c0.3,0.2,0.7,0.4,1,0.6
		c0.6,0.3,1,1,1,1.7v2.4h7.8v-2.4c0-0.7,0.4-1.3,1-1.7c0.4-0.2,0.7-0.4,1-0.6c0.6-0.4,1.4-0.4,2-0.1l2.1,1.2l3.9-6.8l-2.1-1.2
		c-0.6-0.4-1-1-0.9-1.7c0-0.2,0-0.4,0-0.6s0-0.4,0-0.6c0-0.7,0.3-1.4,0.9-1.7L283.8,97.9z M276.3,101.4c0,3.5-2.8,6.4-6.4,6.4
		c-3.5,0-6.4-2.8-6.4-6.4s2.8-6.4,6.4-6.4c0,0,0,0,0,0C273.4,95,276.3,97.9,276.3,101.4z"/>
	<path class="st0" d="M98,267.7c-16.8,0-30.5,13.6-30.5,30.5s13.6,30.5,30.5,30.5s30.5-13.6,30.5-30.5c0,0,0,0,0,0
		C128.5,281.4,114.8,267.7,98,267.7C98,267.7,98,267.7,98,267.7z M98,312.4c-7.9,0-14.2-6.4-14.2-14.2s6.4-14.2,14.2-14.2
		s14.2,6.4,14.2,14.2C112.2,306,105.9,312.4,98,312.4C98,312.4,98,312.4,98,312.4L98,312.4z"/>
	<polygon class="st0" points="103.8,269 92.1,269 92.7,260.7 103.2,260.7 	"/>
	<polygon class="st0" points="81.5,272.9 73.2,281.2 67.8,274.9 75.2,267.5 	"/>
	<polygon class="st0" points="68.5,291.5 68.5,303.2 60.2,302.5 60.2,292.1 	"/>
	<polygon class="st0" points="72.5,313.8 80.8,322.1 74.4,327.5 67.1,320.1 	"/>
	<polygon class="st0" points="91,326.8 102.8,326.8 102.1,335.1 91.7,335.1 	"/>
	<polygon class="st0" points="113.3,322.8 121.6,314.5 127,320.9 119.7,328.2 	"/>
	<polygon class="st0" points="126.3,304.2 126.3,292.5 134.6,293.2 134.6,303.6 	"/>
	<polygon class="st0" points="122.4,282 114.1,273.7 120.4,268.2 127.8,275.6 	"/>
	<path class="st0" d="M606.6,234.7c-16.8,0-30.5,13.6-30.5,30.5s13.6,30.5,30.5,30.5c16.8,0,30.5-13.6,30.5-30.5v0
		C637.1,248.3,623.4,234.7,606.6,234.7z M606.6,279.4c-7.9,0-14.2-6.4-14.2-14.2c0-7.9,6.4-14.2,14.2-14.2c7.9,0,14.2,6.4,14.2,14.2
		l0,0C620.8,273,614.5,279.4,606.6,279.4L606.6,279.4z"/>
	<polygon class="st0" points="612.5,235.9 600.8,235.9 601.4,227.6 611.8,227.6 	"/>
	<polygon class="st0" points="590.2,239.9 581.9,248.2 576.5,241.8 583.8,234.5 	"/>
	<polygon class="st0" points="577.2,258.4 577.2,270.1 568.9,269.5 568.9,259.1 	"/>
	<polygon class="st0" points="581.1,280.7 589.4,289 583.1,294.4 575.7,287.1 	"/>
	<polygon class="st0" points="599.7,293.7 611.4,293.7 610.8,302 600.3,302 	"/>
	<polygon class="st0" points="622,289.8 630.3,281.5 635.7,287.8 628.3,295.2 	"/>
	<polygon class="st0" points="635,271.2 635,259.5 643.3,260.1 643.3,270.6 	"/>
	<polygon class="st0" points="631,248.9 622.8,240.6 629.1,235.2 636.4,242.6 	"/>
	<path class="st0" d="M677.6,308.3l-13.1,0.3l-6.7,0.1c-2.2,0-4.5,0-6.7,0.1h-0.4v-0.5v-11.2v-0.5h0.5l13.2,0.1
		c4.4,0,8.8,0.1,13.2,0.2h0.3v0.3c0,1.9-0.1,3.8-0.1,5.7L677.6,308.3z M677.6,308.3l-0.1-5.6c0-1.9-0.1-3.7-0.1-5.5l0.3,0.3
		c-4.4,0-8.8,0.2-13.2,0.2l-13.2,0.1l0.5-0.5v11.2l-0.5-0.4c2.2,0,4.4,0,6.5,0l6.6,0.1L677.6,308.3z"/>
	<path class="st0" d="M314.8,161.1l-13.1,0.3l-6.7,0.1c-2.2,0-4.5,0-6.7,0h-0.4V161l-0.1-11.2v-0.5h0.5l13.2,0.1
		c4.4,0,8.8,0.1,13.2,0.2h0.3v0.3c0,1.9-0.1,3.8-0.1,5.6L314.8,161.1z M314.8,161.1l-0.1-5.7c0-1.9-0.1-3.7-0.1-5.5l0.3,0.3
		c-4.4,0-8.8,0.2-13.2,0.2l-13.2,0.1l0.5-0.5l0,11.2l-0.5-0.4c2.2,0,4.4,0,6.5,0.1l6.6,0.1L314.8,161.1z"/>
	<path class="st0" d="M300,175.2l-13.1,0.3l-6.7,0.1c-2.2,0-4.5,0-6.7,0.1h-0.4v-0.4L273,164v-0.5h0.5l13.2,0.1
		c4.4,0,8.8,0.1,13.2,0.2h0.3v0.3c0,1.9-0.1,3.8-0.1,5.6L300,175.2z M300,175.2l-0.1-5.7c0-1.9-0.1-3.7-0.1-5.5l0.3,0.3
		c-4.4,0.1-8.8,0.2-13.2,0.2l-13.2,0.1l0.5-0.5l0,11.2l-0.5-0.4c2.2,0,4.4,0,6.5,0.1l6.6,0.1L300,175.2z"/>
	<path class="st0" d="M329.6,175.2l-13.1,0.3l-6.7,0.1c-2.2,0-4.5,0-6.7,0.1h-0.4v-0.4l-0.1-11.2v-0.5h0.5l13.2,0.1
		c4.4,0,8.8,0.1,13.2,0.2h0.3v0.3c0,1.9-0.1,3.8-0.1,5.6L329.6,175.2z M329.6,175.2l-0.1-5.7c0-1.9-0.1-3.7-0.1-5.5l0.3,0.3
		c-4.4,0.1-8.8,0.2-13.2,0.2l-13.2,0.1l0.5-0.5l0,11.2l-0.5-0.4c2.2,0,4.4,0,6.5,0.1l6.6,0.1L329.6,175.2z"/>
	<path class="st0" d="M98.9,235.1l-13.1,0.3l-6.7,0.1c-2.2,0-4.5,0-6.7,0.1H72v-0.4v-11.2v-0.5h0.5l13.2,0.1c4.4,0,8.8,0.1,13.2,0.2
		h0.3v0.3c0,1.9-0.1,3.8-0.1,5.6L98.9,235.1z M98.9,235.1l-0.1-5.7c0-1.9-0.1-3.7-0.1-5.5l0.3,0.3c-4.4,0.1-8.8,0.2-13.2,0.2
		l-13.2,0.1l0.5-0.5l-0.1,11.2l-0.4-0.4c2.2,0,4.4,0,6.6,0.1l6.6,0.1L98.9,235.1z"/>
	<path class="st0" d="M537.9,161.1l-13.1,0.3l-6.7,0.1c-2.2,0.1-4.5,0-6.7,0.1h-0.4v-0.4l-0.1-11.2v-0.5h0.5l13.2,0.1
		c4.4,0,8.8,0.1,13.2,0.2h0.3v0.3c0,1.9-0.1,3.8-0.1,5.6L537.9,161.1z M537.9,161.1l-0.1-5.6c0-1.9-0.1-3.7-0.1-5.5l0.3,0.3
		c-4.4,0.1-8.8,0.2-13.2,0.2l-13.2,0.1l0.5-0.5l0,11.2l-0.5-0.4c2.2,0,4.4,0,6.5,0.1l6.6,0.1L537.9,161.1z"/>
	<path class="st0" d="M645.1,89.3l-13.1,0.3l-6.7,0.1c-2.2,0-4.5,0-6.7,0.1h-0.4v-0.4V78.1v-0.5h0.5l13.2,0.1
		c4.4,0,8.8,0.1,13.2,0.2h0.3v0.3c0,1.9-0.1,3.8-0.1,5.7L645.1,89.3z M645.1,89.3l-0.1-5.7c0-1.9-0.1-3.7-0.1-5.5l0.3,0.3
		c-4.4,0-8.8,0.2-13.2,0.2l-13.2,0.1l0.5-0.5l0,11.2l-0.5-0.4c2.2,0,4.4,0,6.5,0.1l6.6,0.1L645.1,89.3z"/>
	<path class="st0" d="M659.8,103.4l-13.1,0.3l-6.7,0.1c-2.2,0.1-4.5,0-6.7,0.1h-0.4v-0.4l-0.1-11.2v-0.5h0.5l13.2,0.1
		c4.4,0,8.8,0.1,13.2,0.2h0.3v0.3c0,1.9-0.1,3.8-0.1,5.7L659.8,103.4z M659.8,103.4l-0.1-5.7c0-1.9-0.1-3.7-0.1-5.5l0.3,0.3
		c-4.4,0-8.8,0.2-13.2,0.2l-13.2,0.1l0.5-0.5v11.2l-0.5-0.4c2.2,0,4.4,0,6.5,0.1l6.6,0.1L659.8,103.4z"/>
	<path class="st0" d="M356.8,93.3l-13.1,0.3l-6.7,0.1c-2.2,0-4.5,0-6.7,0.1h-0.5v-0.4V82.1v-0.5h0.5l13.2,0.1
		c4.4,0,8.8,0.1,13.2,0.2h0.3v0.3c0,1.9-0.1,3.8-0.1,5.7L356.8,93.3z M356.8,93.3l-0.1-5.7c0-1.9-0.1-3.7-0.1-5.5l0.3,0.3
		c-4.4,0.1-8.8,0.2-13.2,0.2l-13.2,0.1l0.5-0.5l-0.1,11.2l-0.4-0.4c2.2,0,4.3,0,6.5,0l6.6,0.1L356.8,93.3z"/>
</g>
<g id="freepik--Plant--inject-2">
	<path class="st2" d="M626.1,313.3c-6.4-13.1-17.6-19.9-30.2-16.1s-14.5,21.3-5.2,25.7s18.8-8.5,23.8-11.2S626.1,313.3,626.1,313.3z
		"/>
	<path class="st3" d="M632.3,348.2c0-1.6-0.1-3.2-0.2-4.7l-0.3-9.5c-0.2-5.8-0.8-11.5-3.2-16.8c-2.1-4.8-5.6-8.9-10.1-11.7
		c-1.7-1-3.5-1.8-5.3-2.3c-1.7-1.7-3.9-2.9-6.2-3.4c-2.9-0.6-5.9-0.7-8.9-0.2c-0.1,0-0.1,0.2,0,0.2c2.8-0.4,5.7-0.2,8.4,0.6
		c1.2,0.3,2.3,0.8,3.4,1.3c0.7,0.4,1.4,0.8,2,1.2c-2.5-0.5-5.2-0.5-7.7,0.1c-0.9,0.2-1.8,0.5-2.7,0.9c-0.7-0.2-1.4-0.2-2.1-0.2
		c-0.9,0-1.8,0.2-2.7,0.4c-1.8,0.5-3.6,1.3-5.2,2.3c0,0,0,0.1,0,0.1c0,0,0.1,0,0.1,0l0,0c1.6-0.9,3.3-1.5,5.1-1.9
		c0.9-0.2,1.7-0.3,2.6-0.4c0.5,0,1,0,1.4,0c-3.6,1.7-6.5,4.5-8.1,8.1c0,0.1,0.1,0.2,0.1,0.1c2-4.2,5.8-7.3,10.4-8.3
		c0.3-0.1,0.6-0.1,0.8-0.2c-0.1,0.4-0.1,0.8-0.1,1.3c-0.1,0.6-0.2,1.3-0.3,1.9c-0.5,2.6-1.4,5.2-2.5,7.6c-0.6,1.3-1.3,2.5-2.1,3.6
		c-0.1,0.1,0.1,0.2,0.1,0.1c0.8-1.2,1.6-2.3,2.3-3.5c0.7-1.2,1.2-2.4,1.7-3.7c0.5-1.3,0.9-2.6,1.1-3.9c0.1-0.7,0.2-1.4,0.3-2.1
		c0.1-0.4,0.1-0.9,0.1-1.3c1.5-0.2,3-0.3,4.5-0.1c-0.6,3.1-1.2,6.4-2.9,9.1c0,0.1,0.1,0.2,0.2,0.1c0.8-1.4,1.5-2.9,2.2-4.5
		c0.6-1.5,0.9-3.1,1.1-4.7c2.6,0.3,5.1,1.2,7.4,2.5c4.3,2.5,7.7,6.3,9.8,10.8c2.2,4.9,3.5,10.1,3.7,15.4c0.4,6.7,0.5,13.5,1.2,20.2
		c0,0.4,0.7,0.6,0.8,0.1C632.4,351.2,632.4,349.7,632.3,348.2z"/>
	<path class="st3" d="M617.5,304.5c-0.4-0.5-0.9-1-1.5-1.3c-0.5-0.4-1.1-0.9-1.6-1.2c-1.1-0.8-2.3-1.3-3.6-1.7c-0.1,0-0.1,0.1,0,0.2
		c1.3,0.3,2.5,0.9,3.6,1.8c0.5,0.4,1,0.8,1.5,1.2c0.4,0.5,0.9,0.9,1.5,1.2C617.4,304.7,617.6,304.6,617.5,304.5z"/>
	<path class="st3" d="M597.1,309.3c-1.1,1.2-2,2.5-2.9,3.9c-0.9,1.4-1.6,2.8-2.2,4.3c0,0,0,0.1,0.1,0c1.5-2.9,3.2-5.6,5.2-8.1
		C597.3,309.3,597.2,309.2,597.1,309.3z"/>
	<path class="st3" d="M610.8,308c-0.1,0.8-0.4,1.6-0.7,2.4c-0.3,0.7-0.8,1.4-1.2,2.1c0,0,0,0.1,0.1,0c1.1-1.3,1.8-2.8,2-4.5
		C611,307.9,610.9,307.9,610.8,308z"/>
	<path class="st2" d="M631.4,313.6c0,0,9-11.4,26.5-7.3c16.6,3.8,24.2,34.3,7.5,37.9s-13.8-24.5-19.9-29.3
		C641,311.4,634.5,312.1,631.4,313.6z"/>
	<path class="st3" d="M671.4,322.9c-1.1-1-2.3-1.9-3.6-2.8c-1.2-0.8-2.5-1.5-3.8-1.9c-0.7-1-1.4-2-2.3-2.9c-1.5-1.7-3.3-3.1-5.3-4.2
		c0.2,0,0.3,0,0.5,0c0.9,0,1.8,0,2.8,0c1.9,0.1,3.7,0.6,5.4,1.3c0,0,0.1,0,0.1,0c0,0,0-0.1,0-0.1c-1.7-0.7-3.5-1.3-5.4-1.6
		c-0.9-0.2-1.8-0.2-2.7-0.2c-0.5,0-1,0-1.5,0.1h-0.3c-1.6-0.8-3.3-1.4-5-1.9l0.5-0.1c0.9-0.2,1.7-0.3,2.6-0.4
		c1.7-0.2,3.5-0.2,5.2,0.1c0,0,0.1-0.1,0.1-0.1c0,0,0,0-0.1-0.1c-1.8-0.2-3.5-0.3-5.3-0.2c-1.5,0-2.9,0.2-4.4,0.6
		c-1.1-0.2-2.1-0.3-3.2-0.4c-6.1-0.3-12.7,2-16.5,7s-4.5,11.7-5.1,17.7c-1,8.4-1.2,16.9-0.7,25.4c0,0.5,0.7,0.4,0.8-0.1
		c0.2-7.2,0.5-14.4,1.2-21.5c0.3-3.3,0.7-6.6,1.2-9.9c0.4-2.8,1.2-5.6,2.4-8.2c1.3-2.6,3.4-4.9,5.9-6.3c2.6-1.5,5.4-2.3,8.3-2.6
		c2.6-0.2,5.3,0,7.8,0.7c-0.1,0.5-0.1,1,0,1.5c0.1,0.6,0.2,1.3,0.4,1.9c0.2,0.6,0.4,1.2,0.7,1.7c0.3,0.6,0.7,1.1,1.1,1.7
		c0,0.1,0.2,0,0.1-0.1c-0.7-1-1.2-2.2-1.3-3.4c-0.1-0.6-0.2-1.2-0.2-1.8c0-0.5,0-0.9,0-1.4c2.8,0.8,5.4,2.2,7.6,4
		c0.4,0.3,0.8,0.7,1.2,1.1c-0.6,0.5-1.1,1.1-1.5,1.8c-0.6,0.9-1.1,1.8-1.5,2.8c-0.8,1.9-1.4,4-1.6,6.1c0,0.1,0.2,0.1,0.2,0
		c0.3-2,1-4,2-5.8c0.5-0.9,1-1.7,1.5-2.6c0.3-0.4,0.6-0.8,0.9-1.2c0.2-0.2,0.4-0.4,0.5-0.7c2.1,2,3.8,4.4,5,7l0,0
		c-0.8,0.9-1.5,1.9-2,2.9c-0.6,1.1-1.2,2.3-1.6,3.5c-0.8,2.3-1.5,4.7-2.1,7.1c0,0.1,0.2,0.1,0.2,0c0.5-2.4,1.4-4.8,2.5-7
		c0.5-1.1,1.1-2.2,1.7-3.2c0.6-1,1.1-2,1.6-3c1.2,2.5,1.8,5.3,2,8.1c0,0.1,0.2,0.1,0.2,0c-0.4-4.4-1.8-8.6-4.1-12.4
		c1.1,0.5,2.1,0.9,3.2,1.5c1.3,0.7,2.5,1.5,3.6,2.5C671.3,323.1,671.4,323,671.4,322.9z"/>
	<path class="st3" d="M658.6,323.5c-0.5,1.7-1.2,3.4-1.7,5.1c-0.5,1.7-0.7,3.4-0.8,5.1c0,0,0.1,0,0.1,0c0.5-3.5,1.3-6.9,2.5-10.2
		c0,0,0-0.1,0-0.1C658.6,323.5,658.6,323.5,658.6,323.5C658.6,323.5,658.6,323.5,658.6,323.5z"/>
	<path class="st3" d="M669.6,319.3c-0.7-0.7-1.5-1.2-2.3-1.6c-0.9-0.4-1.8-0.7-2.7-1c-0.1,0-0.1,0.1,0,0.2c0.9,0.2,1.8,0.6,2.6,1.1
		C668,318.3,668.8,318.8,669.6,319.3C669.6,319.3,669.6,319.3,669.6,319.3C669.6,319.3,669.6,319.3,669.6,319.3z"/>
	<path class="st2" d="M640,298.4c0,0,1.7-20.4,16.8-27c12.7-5.5,19.9,8.7,11,17.4C660.5,295.9,648.9,292.7,640,298.4z"/>
	<path class="st3" d="M665,275.3c-2.3,0.9-4.6,2-6.8,3.2c-1.8,1-3.6,2.2-5.2,3.5c0.3-0.5,0.5-1.1,0.7-1.6c0.4-0.8,0.8-1.6,1.3-2.3
		c0.9-1.5,2.1-3,3.3-4.2c0.1-0.1,0-0.2-0.1-0.1c-1.3,1.3-2.5,2.6-3.5,4.1c-0.5,0.7-1,1.5-1.4,2.3c-0.4,0.7-0.8,1.5-1,2.4l-0.2,0.1
		c-2.7,2.1-5.1,4.5-7.2,7.1c0-0.2,0.1-0.4,0.1-0.6c0.3-1,0.6-2,0.9-3c0.6-2.1,1.6-4.1,2.8-6c0.1-0.1-0.1-0.2-0.2-0.1
		c-1.2,1.9-2.3,3.8-3.2,5.8c-0.4,1-0.7,2-1,3c-0.2,0.7-0.4,1.4-0.5,2.1c-0.7,0.8-1.3,1.7-1.9,2.5c-6.5,9.3-9.8,20.5-10.6,31.7
		c-0.2,3.3-0.3,6.7-0.2,10.1c0,3.4,0.3,6.8,0.9,10.1c0,0.2,0.4,0.1,0.4-0.1c-0.1-3-0.4-5.9-0.4-8.8s0-5.9,0.3-8.9
		c0.5-5.9,1.6-11.7,3.3-17.4c1.7-5.8,4.3-11.2,7.6-16.3c0.6-0.1,1.3-0.3,1.9-0.5s1.5-0.4,2.3-0.6c1.5-0.4,2.9-0.9,4.2-1.6
		c0.1,0,0-0.2-0.1-0.1c-1.3,0.7-2.8,1.2-4.3,1.5c-1.2,0.2-2.4,0.4-3.6,0.7c1.1-1.6,2.3-3.2,3.5-4.6c2.9,0.3,5.8,0,8.6-0.6
		c1.5-0.4,3-0.8,4.4-1.4c1.5-0.6,3-1.3,4.5-2c0.1,0,0-0.2-0.1-0.1c-2.7,1.5-5.7,2.4-8.8,2.9c-2.7,0.4-5.4,0.7-8.2,0.7
		c1.1-1.2,2.2-2.4,3.4-3.6c4-3.8,8.7-7.3,14-9.1C665.1,275.5,665.1,275.3,665,275.3z"/>
	<path class="st3" d="M652.6,275.4c-0.7,0.9-1.3,1.8-1.9,2.7c-0.6,1-1,2.1-1.3,3.2c0,0,0,0.1,0.1,0c0.5-1,0.9-2,1.5-3
		c0.5-1,1.1-1.9,1.8-2.8C652.8,275.4,652.7,275.3,652.6,275.4z"/>
	<path class="st3" d="M666.8,282.2c-1,0.5-2,1-3.1,1.3c-1,0.3-2.1,0.6-3.2,0.9c0,0,0,0.1,0,0.1c1.1-0.1,2.2-0.4,3.3-0.7
		c1.1-0.4,2.1-0.9,3.1-1.4C666.9,282.3,666.8,282.1,666.8,282.2z"/>
	<path class="st2" d="M628.2,294.8c-0.1,0.9-2.3-7.4-15.1-14.8c-11.7-6.7-25.6-24.1-14.2-35.1C608.1,236,632.4,255.4,628.2,294.8z"
		/>
	<path class="st3" d="M637,342.3c-0.2-8.6-0.8-17.3-2-25.8c-1-7.9-2.8-15.6-5.4-23.1c-1-2.7-2-5.4-3.2-8c0.1-1,0.1-2,0-3
		c-0.1-1.3-0.2-2.6-0.3-3.9s-0.2-2.6-0.4-3.9s-0.4-2.6-0.5-3.9c0,0,0-0.1-0.1-0.1c0,0-0.1,0-0.1,0.1c0,0,0,0,0,0
		c0.3,1.4,0.4,2.8,0.5,4.1c0.1,1.3,0.2,2.5,0.2,3.8c0,1.3,0,2.5,0,3.8c0,0.5,0,0.9,0,1.4c-1.2-2.5-2.5-5.1-3.9-7.5
		c0.9-5.3-0.3-10.9-1.3-16.1c0-0.1-0.2-0.1-0.2,0c0.5,2.7,0.8,5.5,0.8,8.2c0,2.2,0,4.4-0.1,6.6c-0.3-0.5-0.6-1-0.9-1.6
		c-1.7-2.7-3.5-5.4-5.3-8c0.2-1.3,0.1-2.5-0.1-3.8c-0.2-1.4-0.5-2.8-0.9-4.1c-0.4-1.4-0.9-2.7-1.4-4s-1.3-2.6-1.8-4
		c0,0-0.1-0.1-0.1,0c0,0-0.1,0.1,0,0.1c0.7,1.3,1.2,2.6,1.6,4c0.4,1.3,0.7,2.6,1,4c0.3,1.4,0.5,2.7,0.7,4.1c0.1,0.9,0.2,1.8,0.4,2.8
		c-2.8-3.7-5.8-7.2-9-10.5c-0.1-0.1-0.2,0-0.1,0.1c4.9,5.5,9.3,11.4,13,17.8l0.4,0.7c-0.7-0.4-1.5-0.8-2.2-1.2l-3.7-2.1
		c-1.2-0.6-2.4-1.3-3.6-2c-0.6-0.3-1.2-0.7-1.9-1c-0.8-0.3-1.5-0.7-2.2-1.2c0,0-0.1,0-0.1,0c0,0,0,0.1,0,0.1c0,0,0,0,0,0
		c1.2,0.7,2.3,1.7,3.5,2.5s2.4,1.5,3.7,2.2c2.3,1.3,4.8,2.2,7,3.5c1.6,2.7,3,5.5,4.3,8.4c-1.3-0.9-2.7-1.7-4.2-2.5
		c-0.9-0.5-1.8-1-2.7-1.5c-0.9-0.4-1.8-0.9-2.6-1.6c0,0-0.1,0-0.1,0s0,0.1,0,0.1l0,0c1.5,1.3,3.2,2.5,4.9,3.4c1.7,1,3.3,1.9,5,2.7
		c1.4,3,2.6,6.1,3.7,9.2c5.4,15.3,7.4,31.5,8.3,47.7c0.3,4.8,0.4,9.6,0.5,14.4s-0.2,9.6-0.2,14.4c0,0.1,0.2,0.2,0.2,0
		c0.6-4.3,0.7-8.6,0.9-12.9S637.1,346.7,637,342.3z"/>
	<path class="st3" d="M613.7,273c-2.3-1-4.6-2.2-6.8-3.5c-2.2-1.3-4.4-2.6-6.5-4.1c0,0-0.1,0,0,0.1c2,1.6,4,3,6.2,4.4
		c2.3,1.3,4.6,2.4,7,3.4C613.7,273.2,613.8,273.1,613.7,273z"/>
	<path class="st3" d="M617.4,255.8c-0.2-0.7-0.4-1.5-0.7-2.2c0,0,0-0.1,0-0.1c-0.2-0.4-0.3-0.8-0.5-1.2c0-0.1,0-0.1-0.1-0.1
		l-0.1-0.2c0,0,0,0,0,0s0.1,0.3,0.1,0.4c0,0.1,0,0.2,0.1,0.2c0.8,2.9,1.5,5.8,1.9,8.7c0,0,0,0.1,0,0.1c0,0,0.1,0,0.1,0
		c0,0,0,0,0-0.1C618.2,259.4,617.9,257.5,617.4,255.8z"/>
	<polygon class="st4" points="650.6,345.4 649.7,356.3 646.8,389.4 616.8,389.4 614,356.3 613.1,345.4 	"/>
	<polygon class="st3" points="650.6,345.4 649.7,356.3 614,356.3 613.1,345.4 	"/>
	<rect x="610.1" y="341.1" class="st4" width="43.4" height="10.4"/>
</g>
<g id="freepik--Floor--inject-2">
	<polygon class="st3" points="50.7,389.4 131.8,389.2 212.9,389.1 375,388.9 537.1,389.1 618.2,389.2 699.3,389.4 618.2,389.6 
		537.1,389.7 375,389.9 212.9,389.7 131.8,389.6 	"/>
</g>
<g id="freepik--Shadow--inject-2">
	<ellipse class="st0" cx="375" cy="451.2" rx="294" ry="23.3"/>
</g>
<g id="freepik--character-2--inject-2">
	<rect x="163.3" y="125.7" class="st0" width="421.7" height="282.1"/>
	<rect x="166.4" y="129.2" class="st3" width="415.5" height="275.2"/>
	<rect x="108.4" y="428.9" class="st5" width="531.5" height="19.4"/>
	<polygon class="st0" points="108.4,428.9 163.3,407.8 585,407.8 639.9,428.9 	"/>
	<polygon class="st3" points="168.2,421.4 203.7,407.8 544.7,407.8 580.1,421.4 	"/>
	<rect x="189.9" y="150.1" class="st6" width="368.6" height="233.4"/>
	<rect x="189.6" y="159.1" class="st2" width="362.3" height="56.4"/>
	<rect x="189.6" y="150.1" class="st7" width="368.9" height="9"/>
	<path class="st8" d="M196.7,154.6c0,1.2-1,2.2-2.2,2.2c-1.2,0-2.2-1-2.2-2.2c0-1.2,1-2.2,2.2-2.2c0,0,0,0,0,0
		C195.7,152.3,196.7,153.3,196.7,154.6z"/>
	<path class="st6" d="M205.8,154.6c0,1.2-1,2.2-2.2,2.2c-1.2,0-2.2-1-2.2-2.2c0-1.2,1-2.2,2.2-2.2c0,0,0,0,0,0
		C204.8,152.3,205.8,153.3,205.8,154.6z"/>
	<path class="st2" d="M214.9,154.6c0,1.2-1,2.2-2.2,2.2c-1.2,0-2.2-1-2.2-2.2c0-1.2,1-2.2,2.2-2.2c0,0,0,0,0,0
		C213.9,152.3,214.9,153.3,214.9,154.6z"/>
	<rect x="551.9" y="159.1" class="st5" width="6.5" height="224.4"/>
	<path class="st1" d="M555.2,236.8L555.2,236.8c-0.9,0-1.7-0.7-1.7-1.7c0,0,0,0,0,0v-73.1c0-0.9,0.7-1.7,1.7-1.7c0,0,0,0,0,0l0,0
		c0.9,0,1.7,0.8,1.7,1.7l0,0v73.1C556.9,236.1,556.1,236.8,555.2,236.8L555.2,236.8z"/>
	<rect x="444.9" y="170" class="st6" width="88.1" height="11.8"/>
	<path class="st8" d="M533.1,181.9h-88.3v-12h88.3V181.9z M445,181.6h87.9v-11.5H445L445,181.6z"/>
	<rect x="521.1" y="169.9" class="st7" width="12" height="12"/>
	<path class="st6" d="M530.9,179.2l-1.1,0.8l-2-2.7l-0.7-1c0.2-0.1,0.3-0.1,0.4-0.2c0.2-0.2,0.4-0.4,0.6-0.7l0.8,1L530.9,179.2z"/>
	<path class="st6" d="M528.7,172.9c-1-1.3-2.9-1.6-4.2-0.6s-1.6,2.9-0.6,4.2c0.9,1.2,2.5,1.6,3.8,0.9c0.1-0.1,0.3-0.2,0.4-0.3
		c0.2-0.2,0.4-0.4,0.6-0.6C529.5,175.4,529.5,174,528.7,172.9z M527.4,176.1c-0.8,0.6-1.9,0.5-2.5-0.3s-0.5-1.9,0.3-2.5
		c0.8-0.6,1.9-0.5,2.5,0.3c0.4,0.5,0.5,1.2,0.2,1.8C527.9,175.7,527.7,175.9,527.4,176.1L527.4,176.1z"/>
	<rect x="447.4" y="172.3" class="st8" width="0.6" height="7.1"/>
	<rect x="237.6" y="170" class="st6" width="202.9" height="11.8"/>
	<path class="st8" d="M440.6,181.9H237.5v-12h203.1V181.9z M237.7,181.6h202.7v-11.5H237.7V181.6z"/>
	<rect x="240.1" y="172.3" class="st8" width="0.6" height="7.1"/>
	<polygon class="st6" points="215.4,179.9 211.1,176 215.4,171.9 216.1,172.6 212.6,175.9 216.1,179.2 	"/>
	<polygon class="st6" points="225.8,171.9 230.1,175.8 225.8,179.9 225.1,179.2 228.6,175.8 225.1,172.6 	"/>
	<rect x="362.6" y="312.5" class="st2" width="65.8" height="50.5"/>
	<path class="st9" d="M369.1,323.5c-0.7,3.2,1.4,6.4,4.7,7.1s6.4-1.4,7.1-4.7s-1.4-6.4-4.7-7.1c-0.8-0.2-1.6-0.2-2.4,0
		C371.5,319.3,369.6,321.2,369.1,323.5z"/>
	<polygon class="st2" points="384.3,352.1 428.4,352.1 406.3,324.9 	"/>
	<polygon class="st10" points="384.3,352.1 428.4,352.1 406.3,324.9 	"/>
	<polygon class="st2" points="362.6,352.1 401.7,352.1 382.1,334.4 	"/>
	<polygon class="st11" points="362.6,352.1 401.7,352.1 382.1,334.4 	"/>
	<rect x="362.6" y="352.1" class="st2" width="65.8" height="10.9"/>
	<rect x="362.6" y="352.1" class="st11" width="65.8" height="10.9"/>
	<rect x="207.8" y="312.5" class="st1" width="49.4" height="4.2"/>
	<rect x="207.8" y="322.1" class="st0" width="143" height="4.2"/>
	<rect x="207.8" y="331.3" class="st0" width="143" height="4.2"/>
	<rect x="207.8" y="340.4" class="st0" width="143" height="4.2"/>
	<rect x="207.8" y="349.6" class="st0" width="143" height="4.2"/>
	<rect x="207.8" y="358.7" class="st0" width="143" height="4.2"/>
	<rect x="326.9" y="230.9" class="st1" width="49.4" height="11.1"/>
	<rect x="326.9" y="249.7" class="st0" width="101.5" height="4.2"/>
	<rect x="326.9" y="258.8" class="st0" width="101.5" height="4.2"/>
	<rect x="326.9" y="268" class="st0" width="101.5" height="4.2"/>
	<rect x="326.9" y="277.1" class="st0" width="101.5" height="4.2"/>
	<rect x="326.9" y="289.3" class="st0" width="101.5" height="4.2"/>
	<rect x="326.9" y="298.4" class="st0" width="101.5" height="4.2"/>
	<rect x="442.8" y="230.9" class="st2" width="90.3" height="11.3"/>
	<rect x="443" y="242.2" class="st6" width="89.9" height="120.5"/>
	<path class="st5" d="M533.1,363h-90.4V242h90.4V363z M443.3,362.6h89.4V242.4h-89.4L443.3,362.6z"/>
	<polygon class="st5" points="443.3,362.8 442.8,362.7 532.7,242.2 533.1,242.3 	"/>
	<polygon class="st5" points="532.7,362.8 442.8,242.3 443.3,242.2 533.1,362.7 	"/>
	<rect x="208" y="231.1" class="st6" width="107.7" height="71.3"/>
	<path class="st5" d="M207.8,302.6v-0.2v-71.5h0.2h107.9v71.7h-0.2H207.8z M208.2,231.3v70.9h107.3v-70.9L208.2,231.3z"/>
	<path class="st5" d="M208.2,231.3c9.1,5.7,18.1,11.6,27.1,17.4l26.9,17.6l26.8,17.8l13.3,9l13.3,9.1l-13.5-8.7l-13.5-8.8
		l-26.9-17.6l-26.8-17.8C225.9,243.4,217,237.4,208.2,231.3z"/>
	<path class="st5" d="M315.5,231.3c-8.8,6.1-17.7,12.1-26.6,18l-26.8,17.9l-26.9,17.6l-13.5,8.8l-13.6,8.7l13.3-9.1l13.3-9
		l26.8-17.8l26.9-17.6C297.4,242.9,306.4,237,315.5,231.3z"/>
	<path class="st2" d="M421.9,179c5.5,0.5,10.5-3.6,11-9.1c0.5-5.5-3.6-10.5-9.1-11c-5.5-0.5-10.5,3.6-11,9.1
		C412.2,173.5,416.3,178.5,421.9,179C421.8,179,421.8,179,421.9,179z M414,168.1c0.5-4.9,4.8-8.5,9.6-8c4.9,0.5,8.5,4.8,8,9.6
		c-0.5,4.9-4.8,8.5-9.6,8c0,0,0,0,0,0C417.1,177.3,413.5,173,414,168.1z M421.9,179c5.5,0.5,10.5-3.6,11-9.1
		c0.5-5.5-3.6-10.5-9.1-11c-5.5-0.5-10.5,3.6-11,9.1C412.2,173.5,416.3,178.5,421.9,179C421.8,179,421.8,179,421.9,179z M414,168.1
		c0.5-4.9,4.8-8.5,9.6-8c4.9,0.5,8.5,4.8,8,9.6c-0.5,4.9-4.8,8.5-9.6,8c0,0,0,0,0,0C417.1,177.3,413.5,173,414,168.1z M421.9,179
		c5.5,0.5,10.5-3.6,11-9.1c0.5-5.5-3.6-10.5-9.1-11c-5.5-0.5-10.5,3.6-11,9.1C412.2,173.5,416.3,178.5,421.9,179
		C421.8,179,421.8,179,421.9,179z M414,168.1c0.5-4.9,4.8-8.5,9.6-8c4.9,0.5,8.5,4.8,8,9.6c-0.5,4.9-4.8,8.5-9.6,8c0,0,0,0,0,0
		C417.1,177.3,413.5,173,414,168.1z M420.9,190.1c11.7,1.1,22.1-7.5,23.1-19.2c1.1-11.7-7.5-22.1-19.2-23.1
		c-11.7-1.1-22.1,7.5-23.1,19.2c0,0,0,0,0,0C400.5,178.7,409.1,189,420.9,190.1L420.9,190.1z M411.2,167.9
		c0.6-6.4,6.3-11.1,12.7-10.5c6.4,0.6,11.1,6.3,10.5,12.7c-0.6,6.4-6.3,11.1-12.7,10.5C415.3,180,410.6,174.3,411.2,167.9
		L411.2,167.9z M412.8,168c-0.5,5.5,3.6,10.5,9.1,11c5.5,0.5,10.5-3.6,11-9.1c0.5-5.5-3.6-10.5-9.1-11
		C418.2,158.3,413.3,162.4,412.8,168C412.7,168,412.7,168,412.8,168L412.8,168z M414,168.1c0.5-4.9,4.8-8.5,9.6-8
		c4.9,0.5,8.5,4.8,8,9.6c-0.5,4.9-4.8,8.5-9.6,8c0,0,0,0,0,0C417.1,177.3,413.5,173,414,168.1z M421.9,179c5.5,0.5,10.5-3.6,11-9.1
		c0.5-5.5-3.6-10.5-9.1-11c-5.5-0.5-10.5,3.6-11,9.1C412.2,173.5,416.3,178.5,421.9,179C421.8,179,421.8,179,421.9,179z M414,168.1
		c0.5-4.9,4.8-8.5,9.6-8c4.9,0.5,8.5,4.8,8,9.6c-0.5,4.9-4.8,8.5-9.6,8c0,0,0,0,0,0C417.1,177.3,413.5,173,414,168.1z M421.9,179
		c5.5,0.5,10.5-3.6,11-9.1c0.5-5.5-3.6-10.5-9.1-11c-5.5-0.5-10.5,3.6-11,9.1C412.2,173.5,416.3,178.5,421.9,179
		C421.8,179,421.8,179,421.9,179z M414,168.1c0.5-4.9,4.8-8.5,9.6-8c4.9,0.5,8.5,4.8,8,9.6c-0.5,4.9-4.8,8.5-9.6,8c0,0,0,0,0,0
		C417.1,177.3,413.5,173,414,168.1z"/>
	<polygon class="st2" points="420.6,148.2 428.7,149 428.8,143.2 421.6,142.5 	"/>
	<polygon class="st2" points="435.9,152.4 441.1,158.7 445.2,154.7 440.6,149.1 	"/>
	<polygon class="st2" points="443.7,166.2 442.9,174.3 448.7,174.4 449.4,167.2 	"/>
	<polygon class="st2" points="439.5,181.4 433.2,186.6 437.2,190.8 442.8,186.2 	"/>
	<polygon class="st2" points="425.7,189.2 417.6,188.5 417.5,194.3 424.8,195 	"/>
	<polygon class="st2" points="410.5,185.1 405.3,178.8 401.1,182.8 405.8,188.4 	"/>
	<polygon class="st2" points="402.7,171.3 403.4,163.2 397.6,163.1 397,170.3 	"/>
	<polygon class="st2" points="406.9,156.1 413.1,150.9 409.1,146.7 403.5,151.3 	"/>
	<g class="st12">
		<path d="M421.9,179c5.5,0.5,10.5-3.6,11-9.1c0.5-5.5-3.6-10.5-9.1-11c-5.5-0.5-10.5,3.6-11,9.1C412.2,173.5,416.3,178.5,421.9,179
			C421.8,179,421.8,179,421.9,179z M414,168.1c0.5-4.9,4.8-8.5,9.6-8c4.9,0.5,8.5,4.8,8,9.6c-0.5,4.9-4.8,8.5-9.6,8c0,0,0,0,0,0
			C417.1,177.3,413.5,173,414,168.1z M421.9,179c5.5,0.5,10.5-3.6,11-9.1c0.5-5.5-3.6-10.5-9.1-11c-5.5-0.5-10.5,3.6-11,9.1
			C412.2,173.5,416.3,178.5,421.9,179C421.8,179,421.8,179,421.9,179z M414,168.1c0.5-4.9,4.8-8.5,9.6-8c4.9,0.5,8.5,4.8,8,9.6
			c-0.5,4.9-4.8,8.5-9.6,8c0,0,0,0,0,0C417.1,177.3,413.5,173,414,168.1z M421.9,179c5.5,0.5,10.5-3.6,11-9.1
			c0.5-5.5-3.6-10.5-9.1-11c-5.5-0.5-10.5,3.6-11,9.1C412.2,173.5,416.3,178.5,421.9,179C421.8,179,421.8,179,421.9,179z M414,168.1
			c0.5-4.9,4.8-8.5,9.6-8c4.9,0.5,8.5,4.8,8,9.6c-0.5,4.9-4.8,8.5-9.6,8c0,0,0,0,0,0C417.1,177.3,413.5,173,414,168.1z M420.9,190.1
			c11.7,1.1,22.1-7.5,23.1-19.2c1.1-11.7-7.5-22.1-19.2-23.1c-11.7-1.1-22.1,7.5-23.1,19.2c0,0,0,0,0,0
			C400.5,178.7,409.1,189,420.9,190.1L420.9,190.1z M411.2,167.9c0.6-6.4,6.3-11.1,12.7-10.5c6.4,0.6,11.1,6.3,10.5,12.7
			c-0.6,6.4-6.3,11.1-12.7,10.5C415.3,180,410.6,174.3,411.2,167.9L411.2,167.9z M412.8,168c-0.5,5.5,3.6,10.5,9.1,11
			c5.5,0.5,10.5-3.6,11-9.1c0.5-5.5-3.6-10.5-9.1-11C418.2,158.3,413.3,162.4,412.8,168C412.7,168,412.7,168,412.8,168L412.8,168z
			 M414,168.1c0.5-4.9,4.8-8.5,9.6-8c4.9,0.5,8.5,4.8,8,9.6c-0.5,4.9-4.8,8.5-9.6,8c0,0,0,0,0,0C417.1,177.3,413.5,173,414,168.1z
			 M421.9,179c5.5,0.5,10.5-3.6,11-9.1c0.5-5.5-3.6-10.5-9.1-11c-5.5-0.5-10.5,3.6-11,9.1C412.2,173.5,416.3,178.5,421.9,179
			C421.8,179,421.8,179,421.9,179z M414,168.1c0.5-4.9,4.8-8.5,9.6-8c4.9,0.5,8.5,4.8,8,9.6c-0.5,4.9-4.8,8.5-9.6,8c0,0,0,0,0,0
			C417.1,177.3,413.5,173,414,168.1z M421.9,179c5.5,0.5,10.5-3.6,11-9.1c0.5-5.5-3.6-10.5-9.1-11c-5.5-0.5-10.5,3.6-11,9.1
			C412.2,173.5,416.3,178.5,421.9,179C421.8,179,421.8,179,421.9,179z M414,168.1c0.5-4.9,4.8-8.5,9.6-8c4.9,0.5,8.5,4.8,8,9.6
			c-0.5,4.9-4.8,8.5-9.6,8c0,0,0,0,0,0C417.1,177.3,413.5,173,414,168.1z"/>
		<polygon points="420.6,148.2 428.7,149 428.8,143.2 421.6,142.5 		"/>
		<polygon points="435.9,152.4 441.1,158.7 445.2,154.7 440.6,149.1 		"/>
		<polygon points="443.7,166.2 442.9,174.3 448.7,174.4 449.4,167.2 		"/>
		<polygon points="439.5,181.4 433.2,186.6 437.2,190.8 442.8,186.2 		"/>
		<polygon points="425.7,189.2 417.6,188.5 417.5,194.3 424.8,195 		"/>
		<polygon points="410.5,185.1 405.3,178.8 401.1,182.8 405.8,188.4 		"/>
		<polygon points="402.7,171.3 403.4,163.2 397.6,163.1 397,170.3 		"/>
		<polygon points="406.9,156.1 413.1,150.9 409.1,146.7 403.5,151.3 		"/>
	</g>
	<path class="st2" d="M519.6,197.7c3.6,0.3,6.7-2.3,7-5.8c0.3-3.6-2.3-6.7-5.8-7c-3.6-0.3-6.7,2.3-7,5.8c0,0,0,0,0,0
		C513.5,194.2,516.1,197.4,519.6,197.7z M514.6,190.7c0.3-3.1,3.1-5.4,6.2-5.1c3.1,0.3,5.4,3.1,5.1,6.2c-0.3,3.1-3.1,5.4-6.2,5.1
		C516.6,196.6,514.3,193.9,514.6,190.7C514.6,190.7,514.6,190.7,514.6,190.7L514.6,190.7z M519.6,197.7c3.6,0.3,6.7-2.3,7-5.8
		c0.3-3.6-2.3-6.7-5.8-7c-3.6-0.3-6.7,2.3-7,5.8c0,0,0,0,0,0C513.5,194.2,516.1,197.4,519.6,197.7z M514.6,190.7
		c0.3-3.1,3.1-5.4,6.2-5.1c3.1,0.3,5.4,3.1,5.1,6.2c-0.3,3.1-3.1,5.4-6.2,5.1C516.6,196.6,514.3,193.9,514.6,190.7
		C514.6,190.7,514.6,190.7,514.6,190.7L514.6,190.7z M519.6,197.7c3.6,0.3,6.7-2.3,7-5.8c0.3-3.6-2.3-6.7-5.8-7
		c-3.6-0.3-6.7,2.3-7,5.8c0,0,0,0,0,0C513.5,194.2,516.1,197.4,519.6,197.7z M514.6,190.7c0.3-3.1,3.1-5.4,6.2-5.1
		c3.1,0.3,5.4,3.1,5.1,6.2c-0.3,3.1-3.1,5.4-6.2,5.1C516.6,196.6,514.3,193.9,514.6,190.7C514.6,190.7,514.6,190.7,514.6,190.7
		L514.6,190.7z M519,204.8c7.5,0.7,14.1-4.8,14.8-12.3c0.7-7.5-4.8-14.1-12.3-14.8c-7.5-0.7-14.1,4.8-14.8,12.3
		C506,197.5,511.5,204.1,519,204.8C519,204.8,519,204.8,519,204.8z M512.8,190.6c0.4-4.1,4-7.1,8.1-6.8c4.1,0.4,7.1,4,6.8,8.1
		c-0.4,4.1-4,7.1-8.1,6.8c0,0,0,0,0,0C515.5,198.3,512.4,194.7,512.8,190.6C512.8,190.6,512.8,190.6,512.8,190.6L512.8,190.6z
		 M513.8,190.6c-0.3,3.6,2.3,6.7,5.8,7c3.6,0.3,6.7-2.3,7-5.8c0.3-3.6-2.3-6.7-5.8-7c0,0,0,0,0,0
		C517.3,184.5,514.1,187.1,513.8,190.6L513.8,190.6z M514.6,190.7c0.3-3.1,3.1-5.4,6.2-5.1c3.1,0.3,5.4,3.1,5.1,6.2
		c-0.3,3.1-3.1,5.4-6.2,5.1C516.6,196.6,514.3,193.9,514.6,190.7C514.6,190.7,514.6,190.7,514.6,190.7L514.6,190.7z M519.6,197.7
		c3.6,0.3,6.7-2.3,7-5.8c0.3-3.6-2.3-6.7-5.8-7c-3.6-0.3-6.7,2.3-7,5.8c0,0,0,0,0,0C513.5,194.3,516.1,197.4,519.6,197.7
		L519.6,197.7z M514.6,190.7c0.3-3.1,3.1-5.4,6.2-5.1c3.1,0.3,5.4,3.1,5.1,6.2c-0.3,3.1-3.1,5.4-6.2,5.1
		C516.6,196.6,514.3,193.9,514.6,190.7C514.6,190.7,514.6,190.7,514.6,190.7L514.6,190.7z M519.6,197.7c3.6,0.3,6.7-2.3,7-5.8
		c0.3-3.6-2.3-6.7-5.8-7c-3.6-0.3-6.7,2.3-7,5.8c0,0,0,0,0,0C513.5,194.3,516.1,197.4,519.6,197.7L519.6,197.7z M514.6,190.7
		c0.3-3.1,3.1-5.4,6.2-5.1c3.1,0.3,5.4,3.1,5.1,6.2c-0.3,3.1-3.1,5.4-6.2,5.1C516.6,196.6,514.3,193.9,514.6,190.7
		C514.6,190.7,514.6,190.7,514.6,190.7L514.6,190.7z"/>
	<polygon class="st2" points="518.8,178 524,178.5 524.1,174.8 519.5,174.3 	"/>
	<polygon class="st2" points="528.6,180.7 532,184.7 534.6,182.1 531.7,178.5 	"/>
	<polygon class="st2" points="533.6,189.5 533.1,194.7 536.9,194.8 537.3,190.1 	"/>
	<polygon class="st2" points="530.9,199.3 526.9,202.6 529.5,205.3 533.1,202.3 	"/>
	<polygon class="st2" points="522.1,204.3 516.9,203.8 516.9,207.5 521.5,207.9 	"/>
	<polygon class="st2" points="512.4,201.6 509,197.6 506.3,200.1 509.3,203.7 	"/>
	<polygon class="st2" points="507.3,192.8 507.8,187.6 504.1,187.5 503.7,192.1 	"/>
	<polygon class="st2" points="510,183 514.1,179.7 511.5,177 507.9,180 	"/>
	<g class="st13">
		<path class="st6" d="M519.6,197.7c3.6,0.3,6.7-2.3,7-5.8c0.3-3.6-2.3-6.7-5.8-7c-3.6-0.3-6.7,2.3-7,5.8c0,0,0,0,0,0
			C513.5,194.2,516.1,197.4,519.6,197.7z M514.6,190.7c0.3-3.1,3.1-5.4,6.2-5.1c3.1,0.3,5.4,3.1,5.1,6.2c-0.3,3.1-3.1,5.4-6.2,5.1
			C516.6,196.6,514.3,193.9,514.6,190.7C514.6,190.7,514.6,190.7,514.6,190.7L514.6,190.7z M519.6,197.7c3.6,0.3,6.7-2.3,7-5.8
			c0.3-3.6-2.3-6.7-5.8-7c-3.6-0.3-6.7,2.3-7,5.8c0,0,0,0,0,0C513.5,194.2,516.1,197.4,519.6,197.7z M514.6,190.7
			c0.3-3.1,3.1-5.4,6.2-5.1c3.1,0.3,5.4,3.1,5.1,6.2c-0.3,3.1-3.1,5.4-6.2,5.1C516.6,196.6,514.3,193.9,514.6,190.7
			C514.6,190.7,514.6,190.7,514.6,190.7L514.6,190.7z M519.6,197.7c3.6,0.3,6.7-2.3,7-5.8c0.3-3.6-2.3-6.7-5.8-7
			c-3.6-0.3-6.7,2.3-7,5.8c0,0,0,0,0,0C513.5,194.2,516.1,197.4,519.6,197.7z M514.6,190.7c0.3-3.1,3.1-5.4,6.2-5.1
			c3.1,0.3,5.4,3.1,5.1,6.2c-0.3,3.1-3.1,5.4-6.2,5.1C516.6,196.6,514.3,193.9,514.6,190.7C514.6,190.7,514.6,190.7,514.6,190.7
			L514.6,190.7z M519,204.8c7.5,0.7,14.1-4.8,14.8-12.3c0.7-7.5-4.8-14.1-12.3-14.8c-7.5-0.7-14.1,4.8-14.8,12.3
			C506,197.5,511.5,204.1,519,204.8C519,204.8,519,204.8,519,204.8z M512.8,190.6c0.4-4.1,4-7.1,8.1-6.8c4.1,0.4,7.1,4,6.8,8.1
			c-0.4,4.1-4,7.1-8.1,6.8c0,0,0,0,0,0C515.5,198.3,512.4,194.7,512.8,190.6C512.8,190.6,512.8,190.6,512.8,190.6L512.8,190.6z
			 M513.8,190.6c-0.3,3.6,2.3,6.7,5.8,7c3.6,0.3,6.7-2.3,7-5.8c0.3-3.6-2.3-6.7-5.8-7c0,0,0,0,0,0
			C517.3,184.5,514.1,187.1,513.8,190.6L513.8,190.6z M514.6,190.7c0.3-3.1,3.1-5.4,6.2-5.1c3.1,0.3,5.4,3.1,5.1,6.2
			c-0.3,3.1-3.1,5.4-6.2,5.1C516.6,196.6,514.3,193.9,514.6,190.7C514.6,190.7,514.6,190.7,514.6,190.7L514.6,190.7z M519.6,197.7
			c3.6,0.3,6.7-2.3,7-5.8c0.3-3.6-2.3-6.7-5.8-7c-3.6-0.3-6.7,2.3-7,5.8c0,0,0,0,0,0C513.5,194.3,516.1,197.4,519.6,197.7
			L519.6,197.7z M514.6,190.7c0.3-3.1,3.1-5.4,6.2-5.1c3.1,0.3,5.4,3.1,5.1,6.2c-0.3,3.1-3.1,5.4-6.2,5.1
			C516.6,196.6,514.3,193.9,514.6,190.7C514.6,190.7,514.6,190.7,514.6,190.7L514.6,190.7z M519.6,197.7c3.6,0.3,6.7-2.3,7-5.8
			c0.3-3.6-2.3-6.7-5.8-7c-3.6-0.3-6.7,2.3-7,5.8c0,0,0,0,0,0C513.5,194.3,516.1,197.4,519.6,197.7L519.6,197.7z M514.6,190.7
			c0.3-3.1,3.1-5.4,6.2-5.1c3.1,0.3,5.4,3.1,5.1,6.2c-0.3,3.1-3.1,5.4-6.2,5.1C516.6,196.6,514.3,193.9,514.6,190.7
			C514.6,190.7,514.6,190.7,514.6,190.7L514.6,190.7z"/>
		<polygon class="st6" points="518.8,178 524,178.5 524.1,174.8 519.5,174.3 		"/>
		<polygon class="st6" points="528.6,180.7 532,184.7 534.6,182.1 531.7,178.5 		"/>
		<polygon class="st6" points="533.6,189.5 533.1,194.7 536.9,194.8 537.3,190.1 		"/>
		<polygon class="st6" points="530.9,199.3 526.9,202.6 529.5,205.3 533.1,202.3 		"/>
		<polygon class="st6" points="522.1,204.3 516.9,203.8 516.9,207.5 521.5,207.9 		"/>
		<polygon class="st6" points="512.4,201.6 509,197.6 506.3,200.1 509.3,203.7 		"/>
		<polygon class="st6" points="507.3,192.8 507.8,187.6 504.1,187.5 503.7,192.1 		"/>
		<polygon class="st6" points="510,183 514.1,179.7 511.5,177 507.9,180 		"/>
	</g>
	<path class="st3" d="M443.7,199.9c-0.4,14.7,11.2,26.9,25.9,27.3s26.9-11.2,27.3-25.9c0.4-14.7-11.2-26.9-25.9-27.3
		C456.3,173.5,444.1,185.1,443.7,199.9C443.7,199.8,443.7,199.9,443.7,199.9z M457.9,200.2c0.2-6.9,5.9-12.3,12.8-12.1
		s12.3,5.9,12.1,12.8c-0.2,6.9-5.9,12.3-12.7,12.1C463.1,212.8,457.7,207.1,457.9,200.2C457.8,200.3,457.8,200.2,457.9,200.2z"/>
	<polygon class="st3" points="465.9,174.9 476.1,175.2 475.7,167.9 466.6,167.7 	"/>
	<polygon class="st3" points="485.2,178.9 492.3,186.3 497.2,180.9 490.9,174.3 	"/>
	<polygon class="st3" points="496.2,195.4 495.9,205.6 503.2,205.2 503.4,196.1 	"/>
	<polygon class="st3" points="492.2,214.8 484.8,221.8 490.2,226.7 496.8,220.4 	"/>
	<polygon class="st3" points="475.7,225.7 465.4,225.4 465.8,232.7 474.9,232.9 	"/>
	<polygon class="st3" points="456.3,221.7 449.2,214.3 444.4,219.7 450.6,226.3 	"/>
	<polygon class="st3" points="445.4,205.2 445.6,195 438.4,195.4 438.1,204.5 	"/>
	<polygon class="st3" points="449.3,185.8 456.8,178.8 451.4,173.9 444.7,180.2 	"/>
	<path class="st3" d="M477.4,194l-8.7-2.6l-6.6,6.3l2.1,8.9l8.7,2.6l6.6-6.3L477.4,194z M470.7,203.2c-1.6-0.1-2.8-1.4-2.8-3
		c0.1-1.6,1.4-2.8,3-2.8c1.6,0.1,2.8,1.4,2.8,3C473.7,201.9,472.4,203.2,470.7,203.2C470.7,203.2,470.7,203.2,470.7,203.2
		L470.7,203.2z"/>
	<path class="st3" d="M510.6,130.8c0.9,1.6,1.8,3.2,2.5,4.8s1.4,3.3,2,5.1c0.8,2.2,1.3,4.5,1.6,6.9c-1-4-2.3-8-4-11.8
		C512,134.2,511.3,132.5,510.6,130.8C510.6,130.8,510.6,130.8,510.6,130.8z"/>
	<path class="st3" d="M504.6,133.4c1,2.1,2.1,4.1,3,6.2s1.6,4.2,2.4,6.4c0.1,0.2,0,0.1-0.1,0c-0.9-2.1-1.8-4-2.7-6.1
		S505.5,135.5,504.6,133.4C504.5,133.3,504.6,133.3,504.6,133.4z"/>
	<path class="st3" d="M499.1,134.6c1.6,3.1,3,6.4,3.9,9.8c0,0.2-0.1,0.1-0.1,0c-1.2-3.3-2.2-5.9-3.9-9.7
		C498.9,134.6,499,134.5,499.1,134.6z"/>
	<path class="st8" d="M542,107.5c5.2-4.9,12.6-6.4,19.3-3.9l-11.1,10.5l3.6,8.1l7.9,4l11.1-10.5c3,9.9-2.5,20.3-12.4,23.3
		c-9.9,3-20.3-2.5-23.3-12.4C534.9,119.8,536.8,112.4,542,107.5z"/>
	<path class="st8" d="M489.5,208.4c-5.1,4.9-12.6,6.4-19.3,4l11.1-10.5l-3.6-8.1l-7.9-4l-11.1,10.4c-3-9.9,2.6-20.3,12.4-23.3
		c9.9-3,20.3,2.6,23.3,12.4C496.6,196.2,494.7,203.5,489.5,208.4L489.5,208.4z"/>
	
		<rect x="471.8" y="148.2" transform="matrix(0.7272 -0.6865 0.6865 0.7272 33.6866 397.7745)" class="st8" width="90.9" height="16.7"/>
	
		<rect x="498.5" y="153.1" transform="matrix(0.7272 -0.6865 0.6865 0.7272 33.6915 397.7727)" class="st0" width="37.4" height="6.9"/>
</g>
<g id="freepik--character-1--inject-2">
	<path class="st14" d="M195.6,455.2c-1.9,0.6-55.6-0.6-57.6-1.9c-0.8-0.5-1.1-8.3-1.1-17.8c0-2,0-4.1,0-6.3c0-2.5,0-5.1,0.1-7.6
		c0.1-11.2,0.5-21.1,0.5-21.1l34.9,0.6l-0.4,21.1l-0.1,7.6l-0.3,6.3c0,0,20.4,9.6,22.4,11.3S197.5,454.6,195.6,455.2z"/>
	<path class="st6" d="M195.6,455.2c-1.9,0.6-55.6-0.6-57.6-1.9c-0.8-0.5-1.1-8.3-1.1-17.8c0-2,0-4.1,0-6.3c0-2.5,0-5.1,0.1-7.6
		l35,0.6l-0.1,7.6l-0.3,6.3c0,0,20.4,9.6,22.4,11.3S197.5,454.6,195.6,455.2z"/>
	<path class="st2" d="M195.8,455.3c-1.2,0.4-24.1,0-40.7-0.6c-3.9-0.2-7.4-0.3-10.2-0.5c-3.9-0.3-6.5-0.5-7-0.8
		c-0.9-0.6-1.2-12.1-1.2-24.2l35.1,0.6l-0.3,6.3c0,0,20.5,9.7,22.5,11.4S197.7,454.7,195.8,455.3z"/>
	<path class="st3" d="M195.1,453.1c-9-0.4-45.6-1.2-54.5-1c-0.1,0-0.1,0.1,0,0.1c8.9,0.6,45.5,1.1,54.5,1.1
		C195.3,453.3,195.3,453.1,195.1,453.1z"/>
	<path class="st3" d="M172.9,434.2c-3.5-0.7-7.9-0.3-10.7,2.2c-0.1,0.1,0,0.2,0.1,0.2c3.4-1,7-1.7,10.5-2c0.1,0,0.2-0.1,0.2-0.3
		C173,434.3,173,434.2,172.9,434.2z"/>
	<path class="st3" d="M175.4,435.8c-3.6-0.7-7.9-0.3-10.7,2.2c-0.1,0.1,0,0.2,0.1,0.2c3.4-1,7-1.7,10.5-2c0.1-0.1,0.2-0.2,0.1-0.3
		C175.5,435.8,175.5,435.8,175.4,435.8z"/>
	<path class="st3" d="M178,437.4c-3.6-0.8-7.9-0.3-10.7,2.2c-0.1,0.1,0,0.2,0.1,0.2c3.4-1,6.9-1.7,10.5-2c0.1,0,0.2-0.1,0.2-0.3
		C178.2,437.5,178.1,437.4,178,437.4z"/>
	<path class="st3" d="M180.5,439c-3.5-0.7-7.9-0.3-10.7,2.2c-0.1,0.1,0,0.2,0.1,0.2c3.4-1,7-1.7,10.5-2c0.1,0,0.2-0.1,0.2-0.3
		C180.6,439.1,180.6,439,180.5,439z"/>
	<path class="st3" d="M179.6,426.1c-1.4-2-4-1.1-5.5,0.1c-2.6,2.1-4.5,4.9-5.7,8c0,0.1,0,0.1,0.1,0.1c0,0,0,0,0,0
		c0,0.3,0.2,0.6,0.6,0.5c3-1,6.3-1.8,8.8-3.7C179.4,430,180.9,427.9,179.6,426.1z M173.3,432.3c-1.4,0.5-2.9,1-4.3,1.6
		c1.1-1.6,2.1-3.2,3.4-4.6c0.6-0.7,1.2-1.4,1.9-2c1.1-0.9,5.3-2.9,4.6,1C178.5,430.4,175,431.6,173.3,432.3L173.3,432.3z"/>
	<path class="st3" d="M159.4,433c2.9,1.3,6.3,1.3,9.4,1.7c0.2,0,0.4-0.2,0.5-0.4c0,0,0-0.1,0-0.1c0,0,0.1-0.1,0.1-0.1c0,0,0,0,0,0
		c-1.8-2.8-4.3-5.1-7.2-6.6c-1.7-0.9-4.5-1.1-5.4,1.1S157.8,432.3,159.4,433z M157.9,430.5c-1.5-3.6,3-2.6,4.3-2
		c0.8,0.5,1.6,1,2.3,1.5c1.6,1.1,2.9,2.5,4.3,3.8c-1.5-0.3-3-0.4-4.6-0.6C162.4,433,158.7,432.5,157.9,430.5L157.9,430.5z"/>
	<path class="st10" d="M168.3,455.1c-4.5-0.1-9.1-0.3-13.3-0.4c-3.9-0.1-7.4-0.3-10.2-0.5c-3.9-0.3-6.5-0.5-7-0.8
		c-0.8-0.5-1.1-9.4-1.1-19.8C144.7,439,160.4,449.7,168.3,455.1z"/>
	<path class="st7" d="M175,435.7h-39.9c0,0,2.2-89.8,1.8-91.9c-1-5-23.7-84.1-23.7-84.1l31.5,0.5l10.8,0.2c0,0-0.9,13.2-0.6,14.6
		c5.3,19.2,15.5,52,17.6,64.1C176.1,360.3,175,435.7,175,435.7z"/>
	<path class="st3" d="M173.7,429.1c-6.2-0.2-28.3-0.8-36.6-0.2c-0.1,0-0.1,0.1,0,0.1c2.8,0.5,30.3,0.3,36.5,0.2c0,0,0.1,0,0.1,0
		C173.8,429.1,173.8,429.1,173.7,429.1C173.7,429.1,173.7,429.1,173.7,429.1z"/>
	<path class="st3" d="M140,341.9c-1.2-4.9-10.1-35.1-12.8-44.6s-5.3-19.1-7.6-28.8c-0.3-1.2-0.6-2.4-0.9-3.7c0-0.1-0.2,0-0.2,0
		c0.9,4.9,2.1,9.7,3.2,14.5s2.4,9.6,3.6,14.4c2.6,9.6,5.4,19.1,8.4,28.5c1.5,4.7,4,14.4,5.4,19.1s-0.9,82.9-0.7,84.2
		c0,0.2,0.2,0.3,0.3,0.2c0.1,0,0.2-0.1,0.2-0.2C139.2,416.4,141.2,346.7,140,341.9z"/>
	<path class="st3" d="M144.7,260.3c0,0-7.7,84-7.8,83.6c-1-4.8-22.3-79.2-23.7-83.9l-0.1-0.2L144.7,260.3z"/>
	<path class="st14" d="M154.3,459.8c-1.9,0.6-55.6-0.6-57.6-1.9c-0.8-0.5-1-8.3-1.1-17.8c0-2,0-4.1,0-6.3c0-2.5,0-5.1,0-7.6
		c0.1-11.2,0.5-21.1,0.5-21.1l34.9,0.6l-0.4,21.1l-0.1,7.6l-0.3,6.3c0,0,20.4,9.6,22.4,11.3S156.2,459.2,154.3,459.8z"/>
	<path class="st6" d="M154.3,459.8c-1.9,0.6-55.6-0.6-57.6-1.9c-0.8-0.5-1-8.3-1.1-17.8c0-2,0-4.1,0-6.3c0-2.5,0-5.1,0-7.6l35,0.6
		l-0.1,7.6l-0.3,6.3c0,0,20.4,9.6,22.4,11.3S156.2,459.2,154.3,459.8z"/>
	<path class="st2" d="M154.4,459.9c-1.2,0.4-24.1,0-40.7-0.6c-3.8-0.2-7.4-0.3-10.2-0.5c-3.9-0.3-6.5-0.5-7-0.8
		c-0.9-0.6-1.2-12.1-1.2-24.2l35.1,0.6l-0.3,6.3c0,0,20.5,9.7,22.5,11.4S156.4,459.3,154.4,459.9z"/>
	<path class="st3" d="M153.7,457.7c-9-0.4-45.6-1.2-54.5-1c-0.1,0-0.1,0.1,0,0.1c9,0.6,45.5,1.1,54.5,1.1
		C153.9,457.9,153.9,457.7,153.7,457.7z"/>
	<path class="st3" d="M131.5,438.8c-3.6-0.7-7.9-0.3-10.7,2.2c-0.1,0.1,0,0.2,0.2,0.2c3.4-1,6.9-1.7,10.5-2
		C131.6,439.1,131.7,439,131.5,438.8C131.6,438.8,131.6,438.8,131.5,438.8z"/>
	<path class="st3" d="M134.1,440.4c-3.5-0.7-7.9-0.3-10.7,2.2c-0.1,0.1,0,0.2,0.1,0.2c3.4-1,7-1.7,10.5-2c0.1-0.1,0.2-0.2,0.1-0.3
		C134.1,440.4,134.1,440.4,134.1,440.4z"/>
	<path class="st3" d="M136.6,442c-3.6-0.7-7.9-0.3-10.7,2.2c-0.1,0.1,0,0.2,0.2,0.2c3.4-1,7-1.7,10.5-2c0.1,0,0.2-0.1,0.2-0.3
		C136.8,442.1,136.7,442,136.6,442z"/>
	<path class="st3" d="M139.1,443.6c-3.6-0.7-7.9-0.3-10.7,2.2c-0.1,0.1,0,0.2,0.1,0.2c3.4-1,6.9-1.7,10.5-2
		C139.2,443.9,139.3,443.8,139.1,443.6C139.2,443.6,139.2,443.6,139.1,443.6z"/>
	<path class="st3" d="M138.3,430.7c-1.4-2-4-1.1-5.5,0.1c-2.6,2.1-4.5,4.9-5.7,8c0,0.1,0,0.1,0.1,0.1c0,0.2,0.2,0.5,0.4,0.5
		c0,0,0.1,0,0.1,0c3-1,6.3-1.8,8.8-3.7C138.1,434.6,139.6,432.5,138.3,430.7z M131.9,436.9c-1.4,0.5-2.9,1-4.3,1.6
		c1.1-1.6,2.1-3.2,3.4-4.6c0.6-0.7,1.2-1.4,1.9-2c1.1-0.9,5.3-2.9,4.6,1C137.1,435,133.6,436.2,131.9,436.9z"/>
	<path class="st3" d="M118.1,437.6c2.9,1.3,6.3,1.3,9.4,1.7c0.2,0,0.4-0.2,0.5-0.4c0,0,0-0.1,0-0.1c0,0,0-0.1,0-0.1c0,0,0,0,0,0
		c-1.8-2.8-4.3-5.1-7.2-6.6c-1.7-0.9-4.5-1.1-5.4,1.1S116.4,436.9,118.1,437.6z M116.5,435.1c-1.5-3.6,3-2.6,4.3-2
		c0.8,0.5,1.6,1,2.3,1.5c1.6,1.1,2.9,2.5,4.3,3.8c-1.5-0.3-3-0.4-4.6-0.6C121.1,437.6,117.4,437.1,116.5,435.1z"/>
	<path class="st7" d="M132.5,439.8l-38.7-0.7c0,0,10.9-139.6,9.5-147c-2.2-12.1-0.3-25.9,5.5-32.5l37.7,0.7c0,0,0.6,10.6-3.5,16.9
		c0,0-3.6,2.2-5.3,3.1L132.5,439.8z"/>
	<path class="st3" d="M131.5,432.9c-5.9-0.3-4.2-0.3-10-0.5c-2.9-0.1-21.8-0.7-24.4-0.3c0,0-0.1,0-0.1,0.1c0,0,0,0.1,0.1,0.1
		c2.7,0.5,21.6,0.8,24.4,0.8c5.9,0.1,4.2,0,10.1,0C131.5,433,131.6,433,131.5,432.9C131.5,432.9,131.5,432.9,131.5,432.9z"/>
	<path class="st3" d="M145.5,275.5c-3.7,1.7-7.3,3.8-10.7,6.1c-0.1,0-0.1,0.1,0,0.2c0,0,0.1,0.1,0.1,0c3.6-1.9,7.3-3.8,10.8-5.9
		c0.1-0.1,0.2-0.2,0.1-0.3C145.7,275.5,145.6,275.5,145.5,275.5z"/>
	<path class="st3" d="M140.7,274.9c-0.2,0.7-0.4,1.5-0.6,2.2c-0.2,0.6-0.2,1.2-0.1,1.8c0,0.1,0.2,0.1,0.2,0c0.3-0.6,0.5-1.2,0.6-1.8
		c0.2-0.7,0.4-1.4,0.6-2.1c0-0.2-0.2-0.4-0.4-0.4C140.9,274.7,140.7,274.8,140.7,274.9z"/>
	<path class="st3" d="M140.4,271.3c0.1-0.6,0.2-1.2,0.4-1.9s0.3-1.3,0.4-2c0-0.1,0.2-0.1,0.2,0c-0.1,0.6-0.1,1.3-0.2,1.9
		s-0.1,1.3-0.2,1.9c-0.1,1.2-0.4,2.4-0.6,3.5c0.6-0.1,1.2-0.3,1.7-0.7c0.5-0.5,0.9-1.1,1-1.8c0.2-0.7,0.4-1.5,0.6-2.2
		c0.3-0.8,0.5-1.6,0.6-2.4c0-0.1,0.2-0.1,0.2,0c-0.2,1.7-0.5,3.4-1,5.1c-0.1,0.7-0.5,1.2-1,1.7c-0.7,0.3-1.4,0.5-2.1,0.6
		c-0.1,0-0.2,0-0.2-0.1C140.1,273.7,140.2,272.5,140.4,271.3z"/>
	<path class="st3" d="M109.5,291.8c-0.2-2.8-0.6-5.5-0.9-8.3c-0.5-5.6,0-11.2,1.3-16.6c0-0.1-0.1-0.1-0.2,0
		c-1.2,4.8-1.8,9.6-1.8,14.5c0.2,4.9,0.9,9.7,0.9,14.6s-0.5,9.9-0.9,14.9s-0.8,9.9-1.2,14.9c-1.7,20-3.2,40-4.8,60
		c-0.4,5.6-0.9,11.2-1.3,16.7c-0.4,5.7-1.1,19.7-1.4,25.4c0,0.5,0.7,0.5,0.8,0c1-10,1.9-28.4,2.7-38.5s1.6-19.9,2.4-29.8
		s1.6-19.9,2.3-29.8c0.4-5,0.8-10,1.1-14.9s0.8-9.9,1-14.9C109.7,297.2,109.7,294.5,109.5,291.8z"/>
	<path class="st3" d="M123.3,266.8c0,0-0.1-0.1-0.1,0c0,0,0,0,0,0c-0.2,0.6-0.4,1.3-0.4,2c-0.1,0.7-0.3,1.5-0.6,2.2
		c-0.4,1.4-1.2,2.7-2.3,3.8c-2.4,2.2-5.6,2.9-8.7,3.6c-0.1,0-0.1,0.2,0,0.2c1.8,0.1,3.6-0.1,5.4-0.7c1.5-0.4,2.9-1.2,4.2-2.2
		c1.2-1.1,2-2.5,2.3-4c0.2-0.8,0.3-1.6,0.3-2.4c0-0.4,0-0.8,0-1.2C123.4,267.6,123.4,267.2,123.3,266.8z"/>
	<path class="st14" d="M145.6,208.2c5.7,18.2,17.1,36,20.7,38.4c5.5,3.8,31.6,7,40.1,6c2.8-0.3,1.8-19.8-0.8-21.4
		s-27.9-1.9-29.6-2.6c-0.9-0.4-14.4-15.9-22-24.1C146.9,196.9,143.9,202.7,145.6,208.2z"/>
	<path class="st2" d="M165.4,216.2L151,227.9c0,0-6.3-13.7-6.8-22s3.4-7.4,8.1-3.4S165.4,216.2,165.4,216.2z"/>
	<path class="st2" d="M165.4,216.2l-5.2,4.2l-9.3,7.5c0,0-6.3-13.7-6.8-22c-0.4-6.7,2.1-7.4,5.6-5.2c0.9,0.6,1.7,1.2,2.5,1.9
		C156.8,206.5,165.4,216.2,165.4,216.2z"/>
	<path class="st3" d="M162.9,214.5c0.1-0.1,0.1-0.2,0-0.1c-4.3,3-8.3,6.3-12.2,9.8 M150.7,224.3c2.2-1.3,11.1-8.9,12.2-9.7
		L150.7,224.3z"/>
	<path class="st3" d="M160.3,220.4l-9.3,7.5c0,0-6.3-13.7-6.8-22c-0.4-6.7,2.1-7.4,5.6-5.2L160.3,220.4z"/>
	<path class="st2" d="M102.7,264c0.1,0.2,54.8,11.2,55.4,10.7c0.9-0.6,1.9-57.3-4.7-70.9c-1.6-3.4-9.1-6.9-12.9-4.4
		c-11,7.1-14.3,14.2-17.9,19.8c-3.6,6.1-6.8,12.4-9.6,18.9C107.5,250.4,102.3,263.4,102.7,264z"/>
	<g class="st15">
		<path d="M150.3,200.6l-8.8-1.7C144,198,147.6,199,150.3,200.6z"/>
		<path d="M154,205.2l-17-3.3c0.4-0.3,0.7-0.5,1.1-0.8l15.4,3C153.7,204.4,153.9,204.8,154,205.2z"/>
		<path d="M155.2,209.2l-21.9-4.2c0.3-0.3,0.6-0.6,0.9-0.9l20.7,4C155,208.5,155.1,208.9,155.2,209.2z"/>
		<path d="M156,213.2l-25.8-5c0.3-0.3,0.5-0.6,0.8-0.9l24.8,4.8C155.9,212.5,156,212.8,156,213.2z"/>
		<path d="M156.6,217.1l-29-5.6l0.7-0.9l28.2,5.4C156.5,216.4,156.6,216.7,156.6,217.1z"/>
		<path d="M157.1,221l-31.7-6.1c0.2-0.3,0.4-0.6,0.6-0.9l31,6L157.1,221z"/>
		<path d="M157.5,224.9l-34.2-6.6l0.6-0.9l33.5,6.5C157.4,224.2,157.4,224.5,157.5,224.9z"/>
		<path d="M157.8,228.8l-36.6-7.1l0.5-0.9l36,7C157.7,228.1,157.8,228.4,157.8,228.8z"/>
		<path d="M158,232.6l-38.7-7.5c0.2-0.3,0.3-0.6,0.5-0.9l38.2,7.4V232.6z"/>
		<path d="M158.2,236.4l-40.7-7.9c0.2-0.3,0.3-0.6,0.5-0.9l40.1,7.8C158.2,235.8,158.2,236.1,158.2,236.4z"/>
		<path d="M158.4,240.3l-42.5-8.2l0.4-0.9l42,8.1C158.4,239.6,158.4,239.9,158.4,240.3z"/>
		<path d="M158.5,244.1l-44.3-8.6c0.1-0.3,0.3-0.6,0.4-0.9l43.8,8.5L158.5,244.1z"/>
		<path d="M158.6,247.9l-46-8.9l0.4-0.9l0,0l45.5,8.8C158.6,247.2,158.6,247.6,158.6,247.9z"/>
		<path d="M158.7,251.8l-47.6-9.2c0.2-0.3,0.3-0.6,0.4-0.9l47.1,9.1C158.7,251.1,158.7,251.4,158.7,251.8z"/>
		<path d="M158.7,254.5v1l-49.2-9.5c0.1-0.3,0.3-0.6,0.4-0.9L158.7,254.5z"/>
		<path d="M158.7,258.3c0,0.4,0,0.7,0,1l-50.7-9.8l0.4-1L158.7,258.3z"/>
		<path d="M158.7,262.1c0,0.4,0,0.7,0,1l-52.1-10.1l0.4-1L158.7,262.1z"/>
		<path d="M158.6,265.9c0,0.4,0,0.7,0,1l-53.4-10.4l0.4-1L158.6,265.9z"/>
		<path d="M158.5,269.7c0,0.4,0,0.7,0,1l-54.7-10.6l0.4-1L158.5,269.7z"/>
		<path d="M158.3,273.5c0,0.5-0.1,0.8-0.1,1l-55.5-10.8c0-0.2,0.1-0.5,0.3-1L158.3,273.5z"/>
	</g>
	<path class="st14" d="M149,208.8c-2.4,0-7.1-4.5-8.9-8.3c-0.1-0.3,0.4-2.9,0.9-6.1c0.3-1.9,0.6-4.1,0.7-6.1l12.4,3.7
		c-0.9,2.5-1.4,5-1.6,7.6c0,0.3,0,0.6,0,0.8c0,0,0,0.1,0,0.1C152.6,202.2,152.6,208.7,149,208.8z"/>
	<path class="st3" d="M152.4,200.5c0,0,0,0.1,0,0.1c-0.4,0-0.9,0-1.3,0c-7.3-0.6-8.6-9.6-8.8-12.1l11.7,3.5c-0.9,2.5-1.4,5-1.6,7.6
		C152.4,199.9,152.4,200.2,152.4,200.5z"/>
	<path class="st14" d="M138,175.6c-1,4.6,2.6,17.2,6,19.8c5,3.7,12.5,3.4,15.6-2.4c2.9-5.7-1.9-22.1-5.7-24.3
		C148.3,165.3,139.4,168.8,138,175.6z"/>
	<path class="st3" d="M152,181.8C152,181.8,151.9,181.9,152,181.8c0.3,0.9,0.5,1.9-0.2,2.4c0,0,0,0.1,0,0.1
		C152.6,183.9,152.4,182.6,152,181.8z"/>
	<path class="st3" d="M150.9,181.2c-1.4,0.3-0.6,3.1,0.7,2.8S152.1,180.9,150.9,181.2z"/>
	<path class="st3" d="M156.4,180.4C156.4,180.4,156.5,180.4,156.4,180.4c0.3,0.9,0.7,1.8,1.5,1.9l0,0
		C157,182.5,156.5,181.2,156.4,180.4z"/>
	<path class="st3" d="M157,179.3c1.3-0.5,2.2,2.2,1,2.7S155.8,179.7,157,179.3z"/>
	<path class="st3" d="M149.5,180.2c0.4-0.2,0.6-0.4,1-0.7s0.7-0.4,0.9-0.9c0.1-0.3-0.1-0.6-0.3-0.7c-0.5-0.2-1.1-0.1-1.5,0.3
		c-0.5,0.3-0.8,0.7-1,1.2c-0.1,0.3,0.1,0.7,0.4,0.8C149.1,180.4,149.3,180.3,149.5,180.2z"/>
	<path class="st3" d="M157.6,178c-0.4,0-0.8,0-1.2,0c-0.4,0.1-0.8,0-1.2-0.2c-0.2-0.2-0.3-0.5-0.2-0.7c0.3-0.4,0.8-0.7,1.4-0.7
		c0.5,0,1.1,0.1,1.5,0.4c0.3,0.2,0.3,0.6,0.1,0.9C157.9,177.9,157.8,178,157.6,178z"/>
	<path class="st3" d="M152.9,190.1c0.2,0.2,0.5,0.3,0.9,0.3c0.3-0.1,0.6-0.2,0.9-0.5c0,0,0.1,0,0.1,0c-0.2,0.4-0.5,0.7-1,0.8
		c-0.4,0-0.7-0.2-0.9-0.6C152.7,190.1,152.8,190.1,152.9,190.1z"/>
	<path class="st3" d="M153.1,187.3c0.6,0.6,1.5,0.8,2.3,0.8c0.4,0,0.7-0.1,1.1-0.2l0.2-0.1l0.2-0.1c0.1,0,0.1-0.1,0.1-0.2l0,0
		c0,0,0-0.1,0-0.1l0,0v-0.1c-0.2-0.7-0.5-1.6-0.5-1.6c0.3,0.1,1.6,0.3,1.5-0.1c-0.9-2.9-2.1-5.8-3.6-8.5c0-0.1-0.2,0-0.1,0.1
		c0.8,2.7,2.1,5.3,3,8c-0.5-0.1-1-0.1-1.5,0c-0.1,0,0.7,1.9,0.7,2.2l0,0c-1.1,0.4-2.2,0.4-3.3-0.1C153,187.2,153,187.2,153.1,187.3z
		"/>
	<path class="st3" d="M155.9,187.6c-0.2,0.6-0.6,1.1-1.1,1.4c-0.3,0.2-0.6,0.3-0.9,0.3c-0.7,0-0.9-0.6-0.9-1.2c0-0.3,0-0.6,0.1-0.9
		C153.9,187.7,155,187.8,155.9,187.6z"/>
	<path class="st16" d="M154.8,189c-0.3,0.2-0.6,0.3-0.9,0.3c-0.7,0-0.9-0.6-0.9-1.2C153.7,188,154.5,188.3,154.8,189z"/>
	<path class="st3" d="M139,184.9c0.8-0.6,2-3.8,2.5-5.1s-0.6-7.1-0.9-8.9c-1.3,1.3-2.1,2.9-2.5,4.6C137.6,177.6,138,181.3,139,184.9
		z"/>
	<path class="st3" d="M152.6,173.2c-0.7,1.4-2.1,2.3-3.7,2.4c-1.6,0.1-3.2-0.6-4.1-1.9c0,0-0.1,0-0.1,0c0.9,1.5,2.5,2.3,4.2,2.2
		c1.7-0.2,3.1-1.2,3.8-2.8C152.8,173.2,152.8,173.2,152.6,173.2C152.7,173.1,152.6,173.2,152.6,173.2z"/>
	<path class="st3" d="M145.5,163.3c-2.4,0.6-4.3,2.3-5.1,4.6c-0.3,1.1-0.2,2.3,0.3,3.4c0,0.1,0.1,0,0.1,0c-0.6-2,0-4.1,1.4-5.5
		c1.6-1.6,3.8-2.5,6.1-2.2c1.1,0.1,2.1,0.6,2.8,1.4c0.1,0.1,0.2,0,0.2-0.1C150.2,163.3,147.8,162.7,145.5,163.3z"/>
	<path class="st3" d="M161.8,165.4c-0.7-1.2-1.8-2.1-3.1-2.5c-1.8-0.6-3.6-0.1-5.3,0.5c-0.1,0,0,0.1,0,0.1c1.4-0.6,3-0.8,4.6-0.5
		c1.3,0.3,2.4,1.1,3.2,2.1c1.6,2.3,1.3,5.4-0.7,7.3c-1.2,1-2.7,1.6-4.2,1.4c-0.1,0-0.1,0.1,0,0.1c3.1,0.4,6-1.9,6.3-5
		C162.6,167.7,162.4,166.5,161.8,165.4z"/>
	<path class="st3" d="M137.8,178.3c0,0-3.5-4-2.1-7.2c0.8-1.8,4.7-2.4,4.7-2.4c0.7-1.8,2-3.2,3.8-3.9c3.1-1.5,7.3-0.4,7.3-0.4
		s2.7-2.4,5.9-1.5c4.5,1.4,5.4,7.6,1.8,10.4c-2.5,2-6.9,0.4-6.9,0.4c-0.4,0.1-3.6,3.3-7.2,0.6c0,0-1.9,2.6-4.3,1.6
		C140.5,177.2,139.3,178.2,137.8,178.3z"/>
	<path class="st14" d="M141.7,185.8c0,0-3.4-3.8-5.1-2.6s1.1,7,3.4,7.6c1.2,0.4,2.5-0.3,2.9-1.4c0,0,0-0.1,0-0.1L141.7,185.8z"/>
	<path class="st3" d="M137.4,184.9c1.5,0.6,2.7,1.7,3.3,3.2c-0.4-0.6-1.2-0.7-1.7-0.3c-0.1,0-0.1,0.1-0.2,0.1c0,0,0,0.1,0,0.1
		c0.5-0.2,1.2-0.1,1.6,0.3c0.3,0.4,0.6,0.7,0.9,1.1c0.1,0.1,0.3,0,0.3-0.1l0,0C141.4,187.4,139.6,184.8,137.4,184.9L137.4,184.9z"/>
	<rect x="155.9" y="205.9" class="st6" width="107.7" height="71.3"/>
	<path class="st5" d="M155.8,277.4v-0.2v-71.5h0.2h107.8v71.7h-0.2H155.8z M156.1,206.1v70.9h107.3v-70.9L156.1,206.1z"/>
	<path class="st2" d="M222,241.6c0,6.8-5.5,12.2-12.2,12.2s-12.2-5.5-12.2-12.2c0-6.8,5.5-12.2,12.2-12.2c0,0,0,0,0,0
		C216.5,229.4,222,234.8,222,241.6z"/>
	<polygon class="st6" points="204.6,246.8 204.6,236.4 217.5,241.6 	"/>
	<rect x="155.9" y="271.7" class="st0" width="107.7" height="5.6"/>
	<rect x="162.5" y="273.6" class="st8" width="90.6" height="1.6"/>
	<rect x="156.9" y="272.7" class="st8" width="3.5" height="3.5"/>
	<rect x="157.7" y="273.3" class="st1" width="0.7" height="2.3"/>
	<rect x="158.9" y="273.3" class="st1" width="0.7" height="2.3"/>
	<rect x="254.5" y="272.7" class="st8" width="3.5" height="3.5"/>
	<rect x="255.1" y="274" class="st1" width="0.7" height="0.9"/>
	<polygon class="st1" points="256.5,275.4 255.5,274.9 255.5,274 256.5,273.5 	"/>
	<g id="freepik--u5Zjqx--inject-2">
		<path class="st1" d="M257,273.8l0.2-0.2c0.2,0.2,0.3,0.4,0.3,0.6c0.1,0.4-0.1,0.7-0.3,1l-0.2-0.2c0.2-0.2,0.3-0.4,0.3-0.6
			C257.3,274.2,257.2,274,257,273.8z"/>
		<path class="st1" d="M256.9,274.9l-0.2-0.1c0.1-0.1,0.1-0.2,0.1-0.3c0-0.1,0-0.2-0.1-0.3l0.2-0.2
			C257.1,274.2,257.1,274.6,256.9,274.9C256.9,274.9,256.9,274.9,256.9,274.9z"/>
	</g>
	<rect x="258.7" y="272.7" class="st8" width="3.5" height="3.5"/>
	<rect x="259.3" y="273.2" class="st1" width="1.5" height="1.5"/>
	<rect x="260.2" y="274.2" class="st6" width="1.5" height="1.5"/>
	<path class="st1" d="M179.4,274.5c0,0.3,0.1,0.6,0.2,0.8h-17.2v-1.7h17.2C179.5,273.9,179.4,274.2,179.4,274.5z"/>
	<path class="st1" d="M183.2,274.5c0,0.3-0.1,0.6-0.2,0.8c-0.5,0.9-1.6,1.3-2.5,0.9c-0.4-0.2-0.7-0.5-0.9-0.9
		c-0.4-0.9,0-2.1,0.9-2.5c0.2-0.1,0.5-0.2,0.8-0.2c0.7,0,1.4,0.4,1.7,1.1C183.1,273.9,183.2,274.2,183.2,274.5z"/>
	<path class="st14" d="M130.7,211.4c-5.5,14-3.9,39.7,1.3,45.8c8.1,9.5,21.2,22.4,28.4,24.5c4.2,1.3,12.5-21.9,8.8-23.2
		c-5.8-2.1-21.1-13.3-22.6-15.1s-4.7-19.6-6.5-30.5C138.1,201.1,133.5,204.3,130.7,211.4z"/>
	<path class="st14" d="M160.4,281.7c12.4,5.1,27.1,3.3,29.5,2.4c2.1-0.7,3.1-1.1,3.1-1.1c3.7-1.2,4.6-3.3,4.6-3.3s4.7-0.1,5.1-3
		c0.4-3.2-6.2-2.4-10.2-4.2c-9.1-4.1-20.8-12.5-23.3-14L160.4,281.7z"/>
	<path class="st3" d="M180,274.8c2.6,1.2,5.4,2.3,8.1,3.2c3.1,0.8,6.3,1.3,9.4,1.6c0.1,0,0.1,0.2,0,0.2c-6.2,0.1-12.4-1.6-17.7-4.7
		C179.7,275,179.8,274.8,180,274.8z"/>
	<path class="st3" d="M176.7,279.9c2.7,1,7.4,2.7,16.3,3v0c-5.6,0.6-11.3-0.3-16.4-2.7C176.4,280.1,176.5,279.9,176.7,279.9z"/>
	<path class="st14" d="M181.9,266.8c-1-1-0.4-1.5,2-1.2s11.9,3.8,12.8,0.4s-12.5-8-16.6-8.3c-3.7,0-7.3,0.2-10.9,0.8
		C171.6,259.9,177.2,263.9,181.9,266.8z"/>
	<path class="st2" d="M143.2,228.6l-18.5,1.5c0,0,2.5-14.9,6.8-22s7-4.1,8.6,1.8S143.2,228.6,143.2,228.6z"/>
	<path class="st3" d="M142,225.8C142.1,225.8,142.1,225.7,142,225.8c-5.2,0-10.4,0.4-15.6,1.1 M126.4,227c2.6,0.1,14.2-1.1,15.6-1.2
		L126.4,227z"/>
	<path class="st3" d="M127.3,229.9c-1,0.1-1.6,0.1-2.6,0.2c0.7-2.6,1.3-5.3,2-7.9s1.5-5.5,2.3-8.2c0,0,0-0.1,0,0
		c-0.6,1.4-1.1,2.8-1.6,4.2c0.1-0.9,0.3-1.8,0.5-2.7c0,0,0,0-0.1,0c-0.3,1.1-0.5,2.1-0.6,3.2c-0.4,1.1-0.8,2.2-1.1,3.3
		c-0.8,2.8-1.4,5.6-1.8,8.4c1,0,2-0.2,3-0.4C127.4,230,127.3,229.9,127.3,229.9z"/>
	<path class="st3" d="M142.5,221.9l-0.2-1.2l0,0c0-1.1,0.1-2.2,0-3.3c0-0.1-0.1,0-0.1,0c0,0.9-0.1,1.7-0.1,2.6
		c-0.1-0.5-0.1-1-0.2-1.4c-0.2-1.1-0.5-2.1-0.7-3.2c0-0.1-0.1-0.1-0.1,0c0.1,1.1,0.2,2.3,0.3,3.4l0.5,3.4c0.3,2.2,0.6,4.3,1.1,6.5
		l-0.2,0.1c-0.1,0-0.1,0.2,0,0.2h0.4c0.1,0,0.1-0.1,0.1-0.1C143.2,226.4,142.9,224.1,142.5,221.9z"/>
	<path class="st14" d="M225.8,220.9c-2.7,1.1-2.5-2.7-2.5-2.7s-1.6,5.5-4.8,5.6s-2.7-4.5-2.7-4.9c-0.1,0.3-1.7,5.3-5,5
		s-2.2-4.8-2.1-5.1c-0.2,0.2-2.4,3.5-4.9,2.7c-4.2-1.3,1.5-11,0.7-14.4l-6-2.7c1.7-0.1,3.3-0.7,4.7-1.7c2-1.4,3.4-2.3,4.9-2.5
		c1.4-0.2,2.8,0.5,3.4,1.8c0,0,1.4-2.8,3.9-2.7c1.3,0.1,2.4,2.2,2.4,2.2c0.7-1.3,2-2,3.5-2c1.8,0.2,2.6,2.3,2.6,2.3s2.1-1.6,3.9-0.8
		C231.5,202.7,231.6,218.4,225.8,220.9z"/>
	<path class="st14" d="M203.2,206.3l-4.6-1.8l-0.4-0.3c-5.1-3.8-5.4-11.9-1.1-10.4c3.2,1.2,4.5,6.9,8,7.6l0,0L203.2,206.3z"/>
	<path class="st3" d="M224.1,202.2C224.1,202.2,224.2,202.2,224.1,202.2c1.4,5.4,1.1,11-0.8,16.2c-0.1,0.2-0.4,0.1-0.3-0.1
		C224.2,213.1,224.5,207.6,224.1,202.2z"/>
	<path class="st3" d="M217.9,201.5c0-0.1,0.1-0.1,0.1,0c1.5,5.9,0.7,12.2-2,17.6c-0.1,0.2-0.4,0.2-0.3,0
		C217.4,215.3,218.3,206.5,217.9,201.5z"/>
	<path class="st3" d="M208.4,219.1c2.6-5.3,3.3-11,3.2-16.9c0-0.1,0.1-0.1,0.1,0c0.9,2.9,0.6,6.6,0.1,9.6c-0.4,2.7-1.5,5.3-3.2,7.4
		C208.5,219.3,208.3,219.2,208.4,219.1z"/>
</g>
</svg>
